<?xml version="1.0" encoding="UTF-8" ?>
<!DOCTYPE svg PUBLIC "-//W3C//DTD SVG 1.1//EN" "http://www.w3.org/Graphics/SVG/1.1/DTD/svg11.dtd">
<svg width="1808pt" height="500pt" viewBox="0 0 1808 500" version="1.1" xmlns="http://www.w3.org/2000/svg">
<g id="#880000ff">
<path fill="#880000" opacity="1.00" d=" M 244.50 0.00 L 255.39 0.00 C 287.16 0.89 318.82 7.41 348.04 19.99 C 385.84 36.16 419.55 61.77 445.19 93.91 C 470.69 125.70 488.29 163.82 495.71 203.91 C 503.38 245.02 500.63 288.06 487.59 327.81 C 475.82 363.82 455.63 397.03 429.22 424.18 C 403.52 450.67 371.89 471.39 337.30 484.28 C 298.44 498.82 255.93 503.28 214.87 497.50 C 171.05 491.40 129.04 473.21 94.49 445.61 C 48.09 408.92 15.36 355.25 4.47 297.06 C -4.11 252.11 -0.20 204.80 15.98 161.97 C 38.99 100.47 87.25 48.94 147.23 22.16 C 177.67 8.14 211.06 0.96 244.50 0.00 M 249.44 6.71 C 243.67 7.74 237.81 7.19 232.00 7.39 C 213.01 8.93 194.15 12.38 175.99 18.18 C 131.18 32.68 90.30 59.96 60.86 96.84 C 48.89 111.44 38.86 127.60 30.81 144.67 C 20.38 165.47 13.65 188.01 9.87 210.94 C 7.10 228.81 5.21 247.00 7.06 265.06 C 9.90 320.50 33.27 374.41 70.80 415.20 C 75.90 420.12 80.87 425.16 85.85 430.20 C 122.84 463.78 170.31 485.81 219.98 491.69 C 226.27 492.82 232.69 492.37 238.99 493.45 C 247.65 493.45 256.40 494.13 265.01 492.92 C 320.27 490.19 373.95 466.89 414.74 429.67 C 419.41 424.70 424.36 420.00 429.20 415.19 C 466.76 374.41 490.12 320.50 492.94 265.05 C 493.36 262.40 493.62 259.72 493.59 257.03 C 493.45 248.69 494.00 240.31 492.68 232.03 C 492.79 224.90 490.85 217.99 490.12 210.93 C 483.34 168.36 464.71 127.80 437.33 94.55 C 429.81 85.83 422.27 77.03 413.37 69.66 C 401.38 58.74 388.29 48.96 374.24 40.83 C 366.29 35.82 357.62 32.12 349.28 27.84 C 325.76 17.42 300.64 10.46 274.99 8.14 C 266.53 6.69 257.91 7.93 249.44 6.71 Z" />
</g>
<g id="#a50001ff">
<path fill="#a50001" opacity="1.00" d=" M 249.44 6.71 C 257.91 7.93 266.53 6.69 274.99 8.14 C 300.64 10.46 325.76 17.42 349.28 27.84 C 357.62 32.12 366.29 35.82 374.24 40.83 C 388.29 48.96 401.38 58.74 413.37 69.66 C 422.27 77.03 429.81 85.83 437.33 94.55 C 464.71 127.80 483.34 168.36 490.12 210.93 C 490.85 217.99 492.79 224.90 492.68 232.03 C 494.00 240.31 493.45 248.69 493.59 257.03 C 493.62 259.72 493.36 262.40 492.94 265.05 C 490.12 320.50 466.76 374.41 429.20 415.19 C 424.36 420.00 419.41 424.70 414.74 429.67 C 373.95 466.89 320.27 490.19 265.01 492.92 C 256.40 494.13 247.65 493.45 238.99 493.45 C 232.69 492.37 226.27 492.82 219.98 491.69 C 170.31 485.81 122.84 463.78 85.85 430.20 C 80.87 425.16 75.90 420.12 70.80 415.20 C 33.27 374.41 9.90 320.50 7.06 265.06 C 5.21 247.00 7.10 228.81 9.87 210.94 C 13.65 188.01 20.38 165.47 30.81 144.67 C 38.86 127.60 48.89 111.44 60.86 96.84 C 90.30 59.96 131.18 32.68 175.99 18.18 C 194.15 12.38 213.01 8.93 232.00 7.39 C 237.81 7.19 243.67 7.74 249.44 6.71 M 210.42 34.47 C 209.02 34.01 207.60 33.90 206.17 34.13 C 187.04 38.56 168.08 44.45 150.66 53.64 C 130.40 63.61 112.17 77.33 95.72 92.71 C 67.23 121.27 46.01 157.33 36.52 196.66 C 32.49 211.11 30.95 226.09 29.78 240.98 C 30.27 249.70 29.06 258.48 30.51 267.14 C 32.74 296.68 41.30 325.69 54.90 351.97 C 65.71 372.55 79.88 391.30 96.21 407.78 C 108.46 419.04 121.51 429.53 135.77 438.16 C 140.19 440.69 142.90 446.72 148.47 446.70 C 161.55 454.80 175.02 462.73 189.85 467.16 C 202.86 471.60 216.36 474.68 230.06 475.80 C 236.32 477.07 242.70 476.03 249.00 476.79 C 255.90 476.12 262.86 477.12 269.68 475.63 C 286.18 474.94 301.96 469.59 317.54 464.55 C 328.60 459.73 339.34 454.14 349.46 447.58 C 350.01 447.57 351.11 447.55 351.65 447.54 C 356.24 445.03 359.80 441.05 364.06 438.06 C 375.94 430.98 387.16 422.71 397.35 413.35 C 402.90 408.95 407.99 403.93 412.47 398.45 C 431.06 377.86 446.23 353.94 455.83 327.86 C 462.86 308.59 467.99 288.51 469.37 267.99 C 470.82 258.72 469.89 249.34 470.19 240.01 C 468.94 227.62 468.07 215.12 465.05 203.00 C 463.08 195.70 461.72 188.23 458.93 181.18 C 448.31 147.53 428.54 117.18 403.79 92.21 C 387.41 77.13 369.43 63.53 349.39 53.68 C 332.21 44.61 313.51 38.84 294.67 34.35 C 293.01 33.89 291.30 34.05 289.66 34.46 C 263.77 27.93 236.31 27.96 210.42 34.47 Z" />
</g>
<g id="#c63b3cff">
<path fill="#c63b3c" opacity="1.00" d=" M 210.42 34.47 C 236.31 27.96 263.77 27.93 289.66 34.46 C 321.29 42.56 351.12 59.54 372.18 84.75 C 380.47 94.58 386.86 105.90 391.54 117.84 C 392.97 122.44 393.50 127.24 394.61 131.92 C 394.11 132.02 393.13 132.24 392.64 132.35 C 392.03 129.71 391.27 127.10 390.22 124.61 C 387.61 117.42 385.29 110.07 381.43 103.42 C 378.92 99.20 377.06 94.62 374.38 90.50 C 363.01 74.98 347.88 62.47 331.23 52.94 C 326.08 50.01 320.93 46.85 315.12 45.43 C 302.05 39.69 288.21 35.51 274.05 33.61 C 262.10 31.89 250.00 32.55 237.96 32.48 C 217.13 33.46 196.75 39.55 178.04 48.65 C 172.27 51.41 167.27 55.46 161.83 58.78 C 151.07 65.67 141.65 74.39 133.06 83.80 C 130.60 86.29 128.24 88.87 125.92 91.49 C 126.17 90.27 126.50 89.08 126.90 87.90 C 130.95 81.69 137.12 77.21 141.12 70.96 C 160.64 53.17 184.92 41.02 210.42 34.47 Z" />
</g>
<g id="#d27678ff">
<path fill="#d27678" opacity="1.00" d=" M 178.04 48.65 C 196.75 39.55 217.13 33.46 237.96 32.48 C 250.00 32.55 262.10 31.89 274.05 33.61 C 288.21 35.51 302.05 39.69 315.12 45.43 C 316.65 46.84 318.30 48.17 320.22 49.02 C 326.93 52.26 333.65 55.75 339.15 60.87 C 348.86 67.96 358.34 75.62 365.94 85.02 C 368.73 88.37 372.07 91.65 372.55 96.22 C 370.55 93.93 368.58 91.62 366.66 89.27 C 362.54 84.33 358.21 79.53 353.35 75.31 C 344.91 67.94 335.88 61.11 325.92 55.92 C 306.30 45.03 284.35 38.42 261.99 36.60 C 253.99 36.27 245.97 36.27 237.97 36.60 C 215.64 38.45 193.73 45.07 174.13 55.93 C 164.09 61.16 154.98 68.02 146.50 75.47 C 141.89 79.39 137.96 84.00 133.82 88.40 C 133.56 86.87 133.31 85.33 133.06 83.80 C 141.65 74.39 151.07 65.67 161.83 58.78 C 167.27 55.46 172.27 51.41 178.04 48.65 Z" />
</g>
<g id="#b60206ff">
<path fill="#b60206" opacity="1.00" d=" M 150.66 53.64 C 168.08 44.45 187.04 38.56 206.17 34.13 C 207.60 33.90 209.02 34.01 210.42 34.47 C 184.92 41.02 160.64 53.17 141.12 70.96 C 132.86 78.00 125.96 86.43 119.64 95.20 C 114.53 98.42 110.33 102.84 105.77 106.74 C 100.53 113.16 94.40 118.79 89.62 125.58 C 71.60 148.35 59.30 175.30 52.35 203.42 C 51.26 207.38 50.49 211.43 50.37 215.55 C 32.71 235.65 33.04 268.95 51.07 288.71 C 52.09 298.06 55.17 307.03 58.13 315.91 C 66.27 340.41 79.49 363.13 96.31 382.67 C 100.92 387.08 104.41 392.54 109.43 396.53 C 112.08 398.83 114.11 401.73 116.45 404.33 C 120.16 412.55 124.86 420.24 130.18 427.51 C 131.26 429.74 132.35 432.03 134.22 433.73 C 138.83 438.20 143.42 442.73 148.47 446.70 C 142.90 446.72 140.19 440.69 135.77 438.16 C 121.51 429.53 108.46 419.04 96.21 407.78 C 79.88 391.30 65.71 372.55 54.90 351.97 C 41.30 325.69 32.74 296.68 30.51 267.14 C 29.06 258.48 30.27 249.70 29.78 240.98 C 30.95 226.09 32.49 211.11 36.52 196.66 C 46.01 157.33 67.23 121.27 95.72 92.71 C 112.17 77.33 130.40 63.61 150.66 53.64 Z" />
</g>
<g id="#b80206ff">
<path fill="#b80206" opacity="1.00" d=" M 289.66 34.46 C 291.30 34.05 293.01 33.89 294.67 34.35 C 313.51 38.84 332.21 44.61 349.39 53.68 C 369.43 63.53 387.41 77.13 403.79 92.21 C 428.54 117.18 448.31 147.53 458.93 181.18 C 461.72 188.23 463.08 195.70 465.05 203.00 C 468.07 215.12 468.94 227.62 470.19 240.01 C 469.89 249.34 470.82 258.72 469.37 267.99 C 467.99 288.51 462.86 308.59 455.83 327.86 C 446.23 353.94 431.06 377.86 412.47 398.45 C 407.99 403.93 402.90 408.95 397.35 413.35 C 387.16 422.71 375.94 430.98 364.06 438.06 C 359.80 441.05 356.24 445.03 351.65 447.54 C 351.11 447.55 350.01 447.57 349.46 447.58 C 354.52 444.01 358.68 439.37 363.44 435.44 C 366.69 432.86 367.90 428.68 370.63 425.67 C 376.39 419.08 380.41 411.07 382.66 402.64 C 383.94 400.25 385.19 397.83 386.42 395.41 C 388.42 391.27 392.29 388.54 395.05 384.96 C 420.25 358.03 437.57 323.85 444.58 287.66 C 446.21 279.08 447.03 270.39 448.06 261.73 C 452.91 261.73 457.77 261.74 462.62 261.73 C 462.64 255.58 462.63 249.42 462.63 243.27 C 457.83 243.26 453.03 243.26 448.23 243.27 C 447.19 223.06 443.56 202.96 436.81 183.86 C 440.84 179.64 444.89 175.43 448.91 171.20 C 444.79 166.74 440.59 162.36 436.38 157.99 C 433.26 161.23 430.14 164.45 427.05 167.71 C 423.52 162.75 421.14 157.13 418.03 151.93 C 413.68 144.47 408.70 137.38 403.42 130.55 C 399.84 125.99 396.57 120.97 391.54 117.84 C 386.86 105.90 380.47 94.58 372.18 84.75 C 351.12 59.54 321.29 42.56 289.66 34.46 Z" />
</g>
<g id="#e7bebfff">
<path fill="#e7bebf" opacity="1.00" d=" M 174.13 55.93 C 193.73 45.07 215.64 38.45 237.97 36.60 C 245.97 36.27 253.99 36.27 261.99 36.60 C 284.35 38.42 306.30 45.03 325.92 55.92 C 321.15 57.87 315.97 57.12 310.97 57.16 C 269.97 57.15 228.98 57.21 187.98 57.16 C 183.34 57.20 178.55 57.70 174.13 55.93 Z" />
</g>
<g id="#d35559ff">
<path fill="#d35559" opacity="1.00" d=" M 315.12 45.43 C 320.93 46.85 326.08 50.01 331.23 52.94 C 347.88 62.47 363.01 74.98 374.38 90.50 C 377.06 94.62 378.92 99.20 381.43 103.42 C 385.29 110.07 387.61 117.42 390.22 124.61 C 391.06 133.82 392.85 143.19 390.33 152.33 C 389.93 147.44 389.99 142.51 389.21 137.65 C 388.47 133.30 387.74 128.92 386.36 124.72 C 384.11 117.78 381.54 110.88 377.75 104.61 C 376.05 101.79 374.26 99.03 372.55 96.22 C 372.07 91.65 368.73 88.37 365.94 85.02 C 358.34 75.62 348.86 67.96 339.15 60.87 C 333.65 55.75 326.93 52.26 320.22 49.02 C 318.30 48.17 316.65 46.84 315.12 45.43 Z" />
</g>
<g id="#e7b1b3ff">
<path fill="#e7b1b3" opacity="1.00" d=" M 146.50 75.47 C 154.98 68.02 164.09 61.16 174.13 55.93 C 178.55 57.70 183.34 57.20 187.98 57.16 C 228.98 57.21 269.97 57.15 310.97 57.16 C 315.97 57.12 321.15 57.87 325.92 55.92 C 335.88 61.11 344.91 67.94 353.35 75.31 C 346.10 77.59 338.45 77.18 330.96 77.06 C 323.63 76.84 316.37 78.50 309.04 77.96 C 301.99 77.42 295.00 78.67 287.97 78.87 C 263.98 78.87 239.99 78.88 215.99 78.91 C 207.31 79.07 198.69 77.33 190.00 77.96 C 181.97 78.50 174.05 76.28 166.01 76.89 C 159.47 77.31 152.87 77.10 146.50 75.47 Z" />
</g>
<g id="#d62b32ff">
<path fill="#d62b32" opacity="1.00" d=" M 119.64 95.20 C 125.96 86.43 132.86 78.00 141.12 70.96 C 137.12 77.21 130.95 81.69 126.90 87.90 C 126.50 89.08 126.17 90.27 125.92 91.49 C 120.52 100.01 115.00 108.68 112.33 118.52 C 110.33 126.20 107.99 134.00 108.49 142.03 C 108.71 146.76 108.13 151.59 109.40 156.22 C 109.83 158.11 110.29 160.00 110.59 161.92 C 110.95 164.36 111.31 166.81 111.88 169.23 C 112.83 173.56 114.31 177.74 115.73 181.94 C 116.12 184.05 116.34 186.18 116.66 188.31 C 109.41 180.13 107.91 168.97 103.71 159.24 C 103.45 153.04 103.70 146.82 103.32 140.62 C 104.41 124.28 111.32 109.07 119.64 95.20 Z" />
</g>
<g id="#e9a4a7ff">
<path fill="#e9a4a7" opacity="1.00" d=" M 353.35 75.31 C 358.21 79.53 362.54 84.33 366.66 89.27 C 353.30 92.35 339.09 87.65 326.01 92.52 C 328.75 92.69 331.49 92.93 334.19 93.46 C 329.59 94.81 324.74 93.88 320.03 94.06 C 312.47 94.29 304.90 93.83 297.36 94.47 C 288.94 95.09 280.48 95.18 272.04 94.89 C 250.03 94.78 228.02 95.16 206.02 94.71 C 190.31 93.22 174.46 95.18 158.77 93.50 C 163.50 92.64 168.31 92.81 173.09 92.73 C 170.22 91.49 167.23 90.34 164.06 90.31 C 156.03 90.14 148.00 90.33 139.98 90.34 C 137.64 90.33 135.37 89.72 133.13 89.15 L 133.82 88.40 C 137.96 84.00 141.89 79.39 146.50 75.47 C 152.87 77.10 159.47 77.31 166.01 76.89 C 174.05 76.28 181.97 78.50 190.00 77.96 C 198.69 77.33 207.31 79.07 215.99 78.91 C 239.99 78.88 263.98 78.87 287.97 78.87 C 295.00 78.67 301.99 77.42 309.04 77.96 C 316.37 78.50 323.63 76.84 330.96 77.06 C 338.45 77.18 346.10 77.59 353.35 75.31 Z" />
</g>
<g id="#d66063ff">
<path fill="#d66063" opacity="1.00" d=" M 125.92 91.49 C 128.24 88.87 130.60 86.29 133.06 83.80 C 133.31 85.33 133.56 86.87 133.82 88.40 L 133.13 89.15 C 128.93 93.85 125.63 99.24 122.40 104.62 C 118.72 110.71 116.11 117.36 113.96 124.12 C 112.75 127.96 111.82 131.88 111.08 135.83 C 110.16 140.17 110.22 144.61 109.99 149.02 C 109.78 151.41 109.49 153.81 109.40 156.22 C 108.13 151.59 108.71 146.76 108.49 142.03 C 107.99 134.00 110.33 126.20 112.33 118.52 C 115.00 108.68 120.52 100.01 125.92 91.49 Z" />
</g>
<g id="#ea9599ff">
<path fill="#ea9599" opacity="1.00" d=" M 122.40 104.62 C 125.63 99.24 128.93 93.85 133.13 89.15 C 135.37 89.72 137.64 90.33 139.98 90.34 C 148.00 90.33 156.03 90.14 164.06 90.31 C 167.23 90.34 170.22 91.49 173.09 92.73 C 168.31 92.81 163.50 92.64 158.77 93.50 C 174.46 95.18 190.31 93.22 206.02 94.71 C 228.02 95.16 250.03 94.78 272.04 94.89 C 280.48 95.18 288.94 95.09 297.36 94.47 C 304.90 93.83 312.47 94.29 320.03 94.06 C 324.74 93.88 329.59 94.81 334.19 93.46 C 331.49 92.93 328.75 92.69 326.01 92.52 C 339.09 87.65 353.30 92.35 366.66 89.27 C 368.58 91.62 370.55 93.93 372.55 96.22 C 374.26 99.03 376.05 101.79 377.75 104.61 C 366.61 105.94 355.33 104.44 344.22 106.31 C 345.03 106.67 345.85 107.04 346.67 107.40 C 345.86 107.79 345.04 108.18 344.24 108.57 C 346.05 108.81 347.88 109.05 349.70 109.29 C 348.85 109.81 348.00 110.33 347.16 110.85 C 350.12 111.38 353.07 111.96 356.00 112.67 C 352.87 113.56 349.63 113.92 346.39 113.95 C 341.93 113.70 337.47 113.64 333.01 113.74 C 278.35 113.73 223.70 113.76 169.04 113.73 C 163.90 113.64 158.74 113.58 153.61 114.08 C 150.36 113.94 147.12 113.51 143.95 112.73 C 146.87 112.01 149.82 111.41 152.77 110.87 C 151.93 110.28 151.08 109.69 150.24 109.11 C 152.07 109.03 153.90 108.96 155.73 108.89 C 154.97 108.35 154.20 107.82 153.44 107.28 C 154.26 106.94 155.09 106.61 155.92 106.27 C 144.80 104.56 133.54 105.85 122.40 104.62 Z" />
</g>
<g id="#c5040aff">
<path fill="#c5040a" opacity="1.00" d=" M 105.77 106.74 C 110.33 102.84 114.53 98.42 119.64 95.20 C 111.32 109.07 104.41 124.28 103.32 140.62 C 101.95 144.30 100.40 147.94 98.25 151.24 C 93.55 158.41 89.18 165.83 85.72 173.69 C 82.19 181.75 78.55 189.83 76.71 198.48 C 66.24 200.86 57.23 207.46 50.37 215.55 C 50.49 211.43 51.26 207.38 52.35 203.42 C 59.30 175.30 71.60 148.35 89.62 125.58 C 94.40 118.79 100.53 113.16 105.77 106.74 Z" />
</g>
<g id="#e4878bff">
<path fill="#e4878b" opacity="1.00" d=" M 113.96 124.12 C 116.11 117.36 118.72 110.71 122.40 104.62 C 133.54 105.85 144.80 104.56 155.92 106.27 C 155.09 106.61 154.26 106.94 153.44 107.28 C 154.20 107.82 154.97 108.35 155.73 108.89 C 153.90 108.96 152.07 109.03 150.24 109.11 C 151.08 109.69 151.93 110.28 152.77 110.87 C 149.82 111.41 146.87 112.01 143.95 112.73 C 147.12 113.51 150.36 113.94 153.61 114.08 C 155.43 114.59 157.20 115.21 158.99 115.83 C 154.89 116.03 150.78 115.90 146.71 116.53 C 149.77 117.00 152.85 117.19 155.94 117.21 C 153.94 117.89 151.95 118.62 149.96 119.34 C 152.51 119.88 155.05 120.57 157.33 121.88 C 155.47 122.34 153.59 122.75 151.71 123.16 C 152.01 123.84 152.30 124.53 152.60 125.22 L 152.32 125.26 C 145.80 124.21 139.20 125.20 132.67 124.44 C 126.44 123.76 120.19 124.41 113.96 124.12 Z" />
<path fill="#e4878b" opacity="1.00" d=" M 344.22 106.31 C 355.33 104.44 366.61 105.94 377.75 104.61 C 381.54 110.88 384.11 117.78 386.36 124.72 C 379.89 124.82 373.41 124.79 366.94 124.81 C 360.50 124.87 354.02 124.26 347.62 125.27 L 347.29 125.21 C 347.54 124.74 348.04 123.80 348.29 123.33 C 346.45 122.64 344.61 121.96 342.78 121.24 C 346.18 120.29 349.70 119.94 353.19 119.44 C 350.28 117.99 346.99 117.77 343.82 117.36 C 346.66 117.10 349.53 116.78 352.38 117.28 C 352.41 116.76 352.43 116.24 352.42 115.72 C 348.65 116.33 344.84 115.94 341.05 115.89 C 342.82 115.20 344.58 114.52 346.39 113.95 C 349.63 113.92 352.87 113.56 356.00 112.67 C 353.07 111.96 350.12 111.38 347.16 110.85 C 348.00 110.33 348.85 109.81 349.70 109.29 C 347.88 109.05 346.05 108.81 344.24 108.57 C 345.04 108.18 345.86 107.79 346.67 107.40 C 345.85 107.04 345.03 106.67 344.22 106.31 Z" />
</g>
<g id="#ec8388ff">
<path fill="#ec8388" opacity="1.00" d=" M 153.61 114.08 C 158.74 113.58 163.90 113.64 169.04 113.73 C 223.70 113.76 278.35 113.73 333.01 113.74 C 337.47 113.64 341.93 113.70 346.39 113.95 C 344.58 114.52 342.82 115.20 341.05 115.89 C 344.84 115.94 348.65 116.33 352.42 115.72 C 352.43 116.24 352.41 116.76 352.38 117.28 C 349.53 116.78 346.66 117.10 343.82 117.36 C 346.99 117.77 350.28 117.99 353.19 119.44 C 349.70 119.94 346.18 120.29 342.78 121.24 C 344.61 121.96 346.45 122.64 348.29 123.33 C 348.04 123.80 347.54 124.74 347.29 125.21 L 347.62 125.27 C 350.10 126.02 352.65 126.53 355.23 126.89 C 353.51 127.33 351.78 127.82 349.99 127.86 C 287.00 127.78 224.00 127.94 161.00 127.80 C 155.57 127.76 150.07 128.35 144.73 127.06 C 147.29 126.59 149.82 125.97 152.32 125.26 L 152.60 125.22 C 152.30 124.53 152.01 123.84 151.71 123.16 C 153.59 122.75 155.47 122.34 157.33 121.88 C 155.05 120.57 152.51 119.88 149.96 119.34 C 151.95 118.62 153.94 117.89 155.94 117.21 C 152.85 117.19 149.77 117.00 146.71 116.53 C 150.78 115.90 154.89 116.03 158.99 115.83 C 157.20 115.21 155.43 114.59 153.61 114.08 Z" />
</g>
<g id="#cf050cff">
<path fill="#cf050c" opacity="1.00" d=" M 391.54 117.84 C 396.57 120.97 399.84 125.99 403.42 130.55 C 408.70 137.38 413.68 144.47 418.03 151.93 C 421.14 157.13 423.52 162.75 427.05 167.71 C 418.38 176.76 409.67 185.78 400.99 194.84 C 399.21 189.85 396.43 185.29 394.74 180.27 C 394.20 177.04 394.75 173.72 394.53 170.45 C 394.67 167.42 394.89 164.38 395.15 161.36 C 395.55 155.57 396.94 149.80 396.21 143.99 C 395.70 139.96 395.51 135.88 394.61 131.92 C 393.50 127.24 392.97 122.44 391.54 117.84 Z" />
</g>
<g id="#eb757cff">
<path fill="#eb757c" opacity="1.00" d=" M 113.96 124.12 C 120.19 124.41 126.44 123.76 132.67 124.44 C 139.20 125.20 145.80 124.21 152.32 125.26 C 149.82 125.97 147.29 126.59 144.73 127.06 C 150.07 128.35 155.57 127.76 161.00 127.80 C 224.00 127.94 287.00 127.78 349.99 127.86 C 351.78 127.82 353.51 127.33 355.23 126.89 C 352.65 126.53 350.10 126.02 347.62 125.27 C 354.02 124.26 360.50 124.87 366.94 124.81 C 373.41 124.79 379.89 124.82 386.36 124.72 C 387.74 128.92 388.47 133.30 389.21 137.65 C 375.70 138.52 362.15 138.08 348.67 139.34 C 345.15 138.68 341.59 138.12 338.00 138.15 C 286.00 138.18 233.99 138.27 181.99 138.12 C 170.85 138.50 159.19 136.82 148.64 141.37 C 136.28 142.08 123.88 141.47 111.50 141.53 C 111.34 139.63 111.16 137.73 111.08 135.83 C 111.82 131.88 112.75 127.96 113.96 124.12 Z" />
</g>
<g id="#db3036ff">
<path fill="#db3036" opacity="1.00" d=" M 390.22 124.61 C 391.27 127.10 392.03 129.71 392.64 132.35 C 393.13 132.24 394.11 132.02 394.61 131.92 C 395.51 135.88 395.70 139.96 396.21 143.99 C 396.94 149.80 395.55 155.57 395.15 161.36 C 391.38 167.26 391.01 174.68 386.87 180.45 C 386.61 179.98 386.10 179.05 385.84 178.58 C 386.51 175.41 387.36 172.28 388.10 169.12 C 388.97 165.20 389.74 161.24 390.19 157.24 C 390.26 155.60 390.29 153.97 390.33 152.33 C 392.85 143.19 391.06 133.82 390.22 124.61 Z" />
</g>
<g id="#e5646cff">
<path fill="#e5646c" opacity="1.00" d=" M 109.99 149.02 C 110.22 144.61 110.16 140.17 111.08 135.83 C 111.16 137.73 111.34 139.63 111.50 141.53 C 123.88 141.47 136.28 142.08 148.64 141.37 C 149.25 141.71 150.47 142.39 151.08 142.74 C 149.11 143.50 147.11 144.14 145.07 144.68 C 148.83 144.95 152.56 145.48 156.20 146.48 C 151.88 149.26 146.30 146.86 141.56 148.63 C 131.07 149.57 120.51 148.94 109.99 149.02 Z" />
</g>
<g id="#ef666dff">
<path fill="#ef666d" opacity="1.00" d=" M 148.64 141.37 C 159.19 136.82 170.85 138.50 181.99 138.12 C 233.99 138.27 286.00 138.18 338.00 138.15 C 341.59 138.12 345.15 138.68 348.67 139.34 C 350.41 139.71 352.15 140.14 353.88 140.56 C 352.23 141.24 350.58 141.93 348.94 142.64 C 351.98 144.14 355.36 144.63 358.65 145.28 C 358.12 145.92 357.60 146.56 357.08 147.21 C 354.19 147.21 351.31 147.18 348.44 147.15 C 348.42 148.81 348.40 150.46 348.39 152.12 C 290.10 152.40 231.79 152.27 173.49 152.24 C 162.99 151.39 152.45 152.04 141.93 151.73 C 144.63 151.02 147.34 150.32 150.05 149.63 C 147.22 149.29 144.39 148.91 141.56 148.63 C 146.30 146.86 151.88 149.26 156.20 146.48 C 152.56 145.48 148.83 144.95 145.07 144.68 C 147.11 144.14 149.11 143.50 151.08 142.74 C 150.47 142.39 149.25 141.71 148.64 141.37 Z" />
</g>
<g id="#e56369ff">
<path fill="#e56369" opacity="1.00" d=" M 348.67 139.34 C 362.15 138.08 375.70 138.52 389.21 137.65 C 389.99 142.51 389.93 147.44 390.33 152.33 C 390.29 153.97 390.26 155.60 390.19 157.24 C 382.93 160.34 374.73 157.39 367.13 159.00 C 366.77 162.31 366.64 165.65 366.71 168.98 C 366.75 172.44 366.46 175.89 366.45 179.35 L 366.16 178.68 C 365.89 168.19 366.17 157.70 366.16 147.21 C 363.13 147.19 360.10 147.20 357.08 147.21 C 357.60 146.56 358.12 145.92 358.65 145.28 C 355.36 144.63 351.98 144.14 348.94 142.64 C 350.58 141.93 352.23 141.24 353.88 140.56 C 352.15 140.14 350.41 139.71 348.67 139.34 Z" />
</g>
<g id="#ffffffff">
<path fill="#ffffff" opacity="1.00" d=" M 627.38 139.56 C 633.28 137.36 641.90 140.83 641.44 148.01 C 641.76 157.16 628.37 160.03 623.19 153.58 C 619.11 149.12 621.42 141.00 627.38 139.56 Z" />
<path fill="#ffffff" opacity="1.00" d=" M 800.37 139.56 C 806.27 137.36 814.87 140.81 814.44 147.99 C 814.78 157.13 801.43 160.03 796.22 153.62 C 792.10 149.17 794.40 141.01 800.37 139.56 Z" />
<path fill="#ffffff" opacity="1.00" d=" M 827.37 139.00 C 833.27 139.00 839.16 139.00 845.06 139.00 C 845.04 150.86 845.11 162.71 845.03 174.57 C 852.17 163.40 869.80 161.63 879.23 170.74 C 886.22 177.87 887.32 188.62 886.45 198.10 C 885.64 207.42 881.06 217.11 872.43 221.49 C 863.57 225.87 851.07 224.96 845.00 216.39 C 845.06 218.61 845.06 220.83 845.06 223.06 C 839.16 223.06 833.27 223.07 827.37 223.06 C 827.37 195.04 827.37 167.02 827.37 139.00 M 853.46 178.54 C 848.18 180.15 844.94 185.66 844.81 191.00 C 844.79 196.42 843.87 202.70 847.76 207.13 C 851.70 212.21 860.24 212.21 864.38 207.41 C 867.38 204.04 868.32 199.39 868.54 195.02 C 868.74 190.46 868.29 185.48 865.35 181.78 C 862.62 178.24 857.58 177.31 853.46 178.54 Z" />
<path fill="#ffffff" opacity="1.00" d=" M 972.41 139.55 C 978.30 137.37 986.86 140.83 986.44 147.97 C 986.80 156.82 974.21 159.89 968.72 154.15 C 963.99 149.87 966.11 141.03 972.41 139.55 Z" />
<path fill="#ffffff" opacity="1.00" d=" M 1038.56 139.00 C 1044.43 139.00 1050.31 139.00 1056.19 139.00 C 1056.19 167.02 1056.19 195.04 1056.19 223.06 C 1050.31 223.07 1044.43 223.06 1038.56 223.06 C 1038.55 220.41 1038.54 217.77 1038.59 215.12 C 1030.85 226.91 1011.51 226.92 1003.03 216.01 C 998.02 209.91 996.75 201.67 997.01 194.01 C 997.18 185.66 999.95 177.00 1006.21 171.22 C 1012.47 165.31 1021.96 163.66 1030.10 165.96 C 1033.68 166.96 1036.64 169.44 1038.59 172.57 C 1038.53 161.38 1038.57 150.19 1038.56 139.00 M 1023.43 178.64 C 1018.31 180.36 1015.79 185.88 1015.18 190.90 C 1014.57 196.25 1014.69 202.25 1018.00 206.78 C 1021.89 212.21 1030.96 212.39 1035.10 207.15 C 1038.77 203.02 1039.05 197.19 1038.89 191.95 C 1039.03 188.21 1038.08 184.28 1035.45 181.50 C 1032.52 178.18 1027.53 177.27 1023.43 178.64 Z" />
<path fill="#ffffff" opacity="1.00" d=" M 1531.35 139.57 C 1537.26 137.34 1545.90 140.82 1545.44 148.02 C 1545.75 157.12 1532.46 160.01 1527.25 153.65 C 1523.10 149.21 1525.37 141.03 1531.35 139.57 Z" />
<path fill="#ffffff" opacity="1.00" d=" M 1712.56 139.00 C 1718.43 139.00 1724.31 139.00 1730.19 139.00 C 1730.19 167.02 1730.19 195.04 1730.19 223.06 C 1724.31 223.07 1718.43 223.06 1712.56 223.06 C 1712.54 220.41 1712.53 217.77 1712.59 215.12 C 1704.85 226.91 1685.49 226.92 1677.01 215.99 C 1671.77 209.59 1670.64 200.90 1671.06 192.90 C 1671.42 184.69 1674.41 176.25 1680.74 170.75 C 1686.84 165.33 1695.73 163.84 1703.52 165.78 C 1707.32 166.72 1710.54 169.25 1712.59 172.56 C 1712.52 161.37 1712.57 150.19 1712.56 139.00 M 1697.46 178.63 C 1692.35 180.32 1689.81 185.81 1689.20 190.80 C 1688.57 196.17 1688.67 202.18 1691.97 206.74 C 1695.85 212.22 1705.00 212.41 1709.13 207.11 C 1713.63 201.83 1713.12 194.35 1712.61 187.90 C 1711.71 180.97 1704.08 176.11 1697.46 178.63 Z" />
<path fill="#ffffff" opacity="1.00" d=" M 540.06 143.00 C 550.40 143.02 560.74 142.95 571.09 143.04 C 580.94 143.34 591.36 145.29 599.17 151.73 C 606.15 157.34 609.71 166.20 610.56 174.94 C 611.79 185.87 610.39 197.71 603.75 206.81 C 596.61 216.98 584.27 222.50 572.05 222.90 C 561.39 223.24 550.72 222.98 540.06 223.06 C 540.06 196.37 540.06 169.69 540.06 143.00 M 558.13 158.07 C 558.13 174.71 558.12 191.35 558.13 208.00 C 565.74 207.94 573.96 208.73 580.78 204.61 C 588.32 200.32 592.00 191.44 591.94 183.03 C 592.35 174.94 589.17 166.21 582.01 161.86 C 574.92 157.24 566.16 158.10 558.13 158.07 Z" />
<path fill="#ffffff" opacity="1.00" d=" M 1239.48 143.06 C 1246.64 142.92 1253.80 143.04 1260.97 143.00 C 1270.47 169.68 1279.95 196.37 1289.41 223.06 C 1282.84 223.07 1276.27 223.06 1269.71 223.06 C 1267.79 217.06 1265.90 211.05 1263.97 205.06 C 1254.55 205.07 1245.15 205.06 1235.74 205.07 C 1233.84 211.06 1231.94 217.06 1230.04 223.06 C 1223.51 223.06 1216.98 223.07 1210.45 223.06 C 1220.11 196.39 1229.89 169.76 1239.48 143.06 M 1249.86 156.77 C 1247.59 168.47 1242.95 179.56 1239.64 191.00 C 1246.35 191.00 1253.06 191.00 1259.77 191.00 C 1256.55 179.57 1251.65 168.55 1249.86 156.77 Z" />
<path fill="#ffffff" opacity="1.00" d=" M 709.52 153.87 C 715.39 152.24 721.25 150.58 727.12 148.95 C 727.13 154.63 727.12 160.31 727.12 166.00 C 731.37 166.00 735.62 165.99 739.88 166.00 C 739.87 170.35 739.88 174.71 739.88 179.06 C 735.62 179.07 731.37 179.06 727.13 179.07 C 727.15 187.06 727.08 195.05 727.15 203.04 C 727.22 205.79 728.07 209.02 730.79 210.27 C 733.80 211.73 737.21 210.64 739.92 209.01 C 739.84 213.37 739.88 217.73 739.89 222.09 C 733.45 224.48 726.08 224.76 719.53 222.68 C 713.15 220.62 709.78 213.88 709.57 207.53 C 709.39 198.05 709.55 188.55 709.50 179.07 C 706.41 179.06 703.33 179.06 700.25 179.06 C 700.24 174.71 700.24 170.35 700.25 166.00 C 703.33 166.00 706.41 166.00 709.50 166.00 C 709.51 161.95 709.47 157.91 709.52 153.87 Z" />
<path fill="#ffffff" opacity="1.00" d=" M 1370.50 153.88 C 1376.37 152.23 1382.24 150.59 1388.12 148.95 C 1388.13 154.63 1388.12 160.31 1388.13 166.00 C 1392.37 166.00 1396.62 166.00 1400.88 166.00 C 1400.87 170.35 1400.87 174.71 1400.88 179.06 C 1396.62 179.07 1392.37 179.06 1388.12 179.07 C 1388.15 187.07 1388.07 195.08 1388.15 203.09 C 1388.23 205.84 1389.09 209.06 1391.83 210.29 C 1394.83 211.72 1398.23 210.63 1400.92 209.01 C 1400.84 213.37 1400.88 217.73 1400.89 222.09 C 1394.46 224.47 1387.12 224.75 1380.58 222.70 C 1374.19 220.66 1370.78 213.92 1370.57 207.56 C 1370.39 198.07 1370.55 188.56 1370.50 179.06 C 1367.41 179.06 1364.32 179.06 1361.25 179.06 C 1361.24 174.71 1361.24 170.35 1361.25 166.00 C 1364.32 166.00 1367.40 166.00 1370.50 166.00 C 1370.50 161.96 1370.48 157.92 1370.50 153.88 Z" />
<path fill="#ffffff" opacity="1.00" d=" M 658.61 169.64 C 668.48 163.36 681.14 164.29 691.99 167.24 C 692.01 171.83 691.99 176.43 692.01 181.02 C 686.56 177.98 680.12 176.32 673.90 177.37 C 671.87 177.80 669.29 178.74 668.93 181.08 C 668.52 183.92 671.37 185.59 673.61 186.52 C 679.62 188.87 686.34 190.22 691.22 194.74 C 695.81 198.92 696.34 205.98 694.42 211.58 C 692.15 217.62 686.13 221.34 680.08 222.75 C 670.71 224.94 660.71 224.27 651.62 221.17 C 651.62 216.43 651.62 211.69 651.62 206.96 C 658.79 211.01 667.70 213.64 675.76 210.76 C 679.04 209.84 679.43 205.02 676.31 203.62 C 669.93 200.11 662.10 199.46 656.44 194.56 C 649.07 188.13 650.33 174.79 658.61 169.64 Z" />
<path fill="#ffffff" opacity="1.00" d=" M 772.94 167.90 C 776.75 164.89 782.00 164.46 786.61 165.51 C 786.66 170.91 786.59 176.32 786.65 181.72 C 782.34 179.78 776.92 179.12 772.80 181.84 C 768.60 184.73 767.09 190.11 767.07 194.98 C 767.05 204.34 767.07 213.70 767.06 223.06 C 761.16 223.06 755.27 223.07 749.37 223.06 C 749.37 204.04 749.38 185.03 749.37 166.01 C 755.26 165.99 761.16 166.00 767.06 166.00 C 767.06 169.55 767.08 173.11 767.02 176.66 C 768.37 173.39 770.05 170.08 772.94 167.90 Z" />
<path fill="#ffffff" opacity="1.00" d=" M 1090.44 165.65 C 1098.72 164.32 1107.69 164.75 1115.19 168.83 C 1122.31 172.65 1127.13 180.09 1128.24 188.04 C 1129.61 197.46 1127.90 207.99 1121.15 215.11 C 1115.29 221.47 1106.38 224.06 1097.94 224.01 C 1089.90 224.15 1081.40 222.10 1075.43 216.45 C 1069.78 211.29 1067.12 203.55 1067.01 196.02 C 1066.74 188.71 1068.38 180.97 1073.18 175.24 C 1077.46 170.01 1083.83 166.79 1090.44 165.65 M 1093.55 178.72 C 1087.60 180.59 1085.00 187.23 1084.94 192.99 C 1084.74 198.56 1085.41 205.22 1090.29 208.78 C 1094.75 211.69 1101.18 211.84 1105.60 208.75 C 1109.70 205.55 1110.59 199.96 1110.75 195.07 C 1110.81 190.25 1110.32 184.81 1106.78 181.18 C 1103.35 177.83 1097.95 177.40 1093.55 178.72 Z" />
<path fill="#ffffff" opacity="1.00" d=" M 1165.06 167.12 C 1168.77 164.79 1173.42 164.57 1177.61 165.52 C 1177.65 170.92 1177.59 176.32 1177.65 181.72 C 1173.36 179.79 1167.97 179.13 1163.85 181.81 C 1159.62 184.68 1158.09 190.07 1158.07 194.94 C 1158.04 204.31 1158.07 213.69 1158.06 223.06 C 1152.16 223.06 1146.27 223.06 1140.37 223.06 C 1140.37 204.04 1140.38 185.03 1140.37 166.01 C 1146.26 165.99 1152.16 166.00 1158.06 166.00 C 1158.05 169.59 1158.04 173.18 1158.13 176.76 C 1159.37 172.95 1161.58 169.27 1165.06 167.12 Z" />
<path fill="#ffffff" opacity="1.00" d=" M 1430.46 165.64 C 1438.97 164.29 1448.24 164.78 1455.84 169.20 C 1462.62 173.11 1467.17 180.36 1468.25 188.06 C 1469.61 197.48 1467.89 208.00 1461.14 215.11 C 1455.06 221.71 1445.73 224.23 1437.00 224.01 C 1428.38 224.05 1419.27 221.26 1413.56 214.51 C 1406.46 206.20 1405.60 194.06 1408.53 183.89 C 1411.35 174.08 1420.58 167.17 1430.46 165.64 M 1433.53 178.72 C 1427.58 180.61 1424.99 187.26 1424.93 193.02 C 1424.73 198.59 1425.42 205.27 1430.33 208.81 C 1434.79 211.68 1441.18 211.83 1445.59 208.75 C 1449.72 205.55 1450.60 199.92 1450.75 195.01 C 1450.80 190.21 1450.31 184.80 1446.79 181.19 C 1443.35 177.83 1437.93 177.40 1433.53 178.72 Z" />
<path fill="#ffffff" opacity="1.00" d=" M 1503.99 167.87 C 1507.80 164.88 1513.01 164.46 1517.61 165.51 C 1517.66 170.91 1517.58 176.31 1517.65 181.72 C 1513.35 179.79 1507.96 179.13 1503.85 181.81 C 1499.61 184.70 1498.08 190.11 1498.07 195.00 C 1498.05 204.35 1498.07 213.71 1498.06 223.06 C 1492.16 223.06 1486.26 223.07 1480.37 223.06 C 1480.37 204.04 1480.37 185.02 1480.37 166.00 C 1486.26 166.00 1492.16 166.00 1498.06 166.00 C 1498.05 169.59 1498.09 173.19 1498.00 176.78 C 1499.30 173.42 1501.05 170.08 1503.99 167.87 Z" />
<path fill="#ffffff" opacity="1.00" d=" M 1614.74 169.73 C 1622.96 166.13 1632.12 164.37 1641.09 165.23 C 1647.29 165.80 1653.72 168.50 1657.11 173.98 C 1659.96 178.43 1660.79 183.84 1660.81 189.03 C 1660.82 200.38 1660.81 211.72 1660.81 223.06 C 1655.26 223.07 1649.72 223.06 1644.19 223.06 C 1644.17 220.28 1644.17 217.51 1644.18 214.73 C 1638.84 224.12 1625.62 226.60 1616.54 221.45 C 1606.10 215.14 1606.72 197.20 1617.54 191.58 C 1625.75 187.23 1635.38 187.78 1644.31 186.13 C 1644.40 182.45 1642.41 178.50 1638.60 177.63 C 1630.34 175.81 1621.72 178.63 1614.74 183.04 C 1614.74 178.60 1614.75 174.17 1614.74 169.73 M 1629.14 198.93 C 1624.53 200.91 1624.05 208.23 1628.38 210.77 C 1632.99 213.33 1639.43 211.69 1642.22 207.19 C 1644.49 204.01 1644.30 199.93 1644.25 196.22 C 1639.22 197.13 1633.87 196.84 1629.14 198.93 Z" />
<path fill="#ffffff" opacity="1.00" d=" M 1765.52 165.63 C 1774.00 164.29 1783.24 164.79 1790.82 169.19 C 1797.62 173.11 1802.18 180.38 1803.26 188.10 C 1804.55 197.27 1802.98 207.45 1796.65 214.55 C 1791.05 221.01 1782.34 223.87 1773.99 223.99 C 1765.64 224.30 1756.72 222.36 1750.48 216.50 C 1744.79 211.33 1742.11 203.54 1742.01 195.99 C 1741.75 188.67 1743.40 180.93 1748.20 175.21 C 1752.50 169.97 1758.90 166.77 1765.52 165.63 M 1768.48 178.74 C 1763.68 180.27 1760.87 185.16 1760.24 189.93 C 1759.57 195.17 1759.66 200.91 1762.37 205.62 C 1765.60 211.12 1773.30 212.16 1778.81 209.82 C 1783.65 207.61 1785.32 201.93 1785.65 197.02 C 1785.94 192.04 1785.77 186.56 1782.78 182.34 C 1779.59 177.97 1773.34 177.23 1768.48 178.74 Z" />
<path fill="#ffffff" opacity="1.00" d=" M 622.37 166.01 C 628.26 165.99 634.16 166.00 640.06 166.00 C 640.06 185.02 640.06 204.04 640.06 223.06 C 634.16 223.07 628.27 223.06 622.38 223.06 C 622.37 204.04 622.38 185.03 622.37 166.01 Z" />
<path fill="#ffffff" opacity="1.00" d=" M 795.37 166.01 C 801.26 165.99 807.16 166.00 813.06 166.00 C 813.06 185.02 813.06 204.04 813.06 223.06 C 807.16 223.07 801.27 223.06 795.38 223.06 C 795.36 204.05 795.38 185.03 795.37 166.01 Z" />
<path fill="#ffffff" opacity="1.00" d=" M 897.49 166.02 C 903.36 165.97 909.24 166.01 915.12 166.00 C 915.14 177.01 915.10 188.01 915.14 199.01 C 915.20 202.66 915.75 206.88 918.85 209.26 C 922.92 212.13 929.31 211.41 932.36 207.36 C 934.49 204.74 934.97 201.25 934.98 197.99 C 935.02 187.32 934.98 176.66 935.00 166.00 C 940.87 166.00 946.75 165.99 952.63 166.00 C 952.62 185.02 952.63 204.04 952.63 223.06 C 946.75 223.06 940.87 223.06 935.00 223.06 C 935.00 220.11 935.00 217.16 934.98 214.21 C 931.88 218.70 927.41 222.50 921.92 223.55 C 915.66 224.69 908.43 223.90 903.63 219.35 C 899.00 214.87 897.70 208.12 897.51 201.93 C 897.47 189.96 897.52 177.99 897.49 166.02 Z" />
<path fill="#ffffff" opacity="1.00" d=" M 967.37 166.00 C 973.26 166.00 979.16 166.00 985.06 166.00 C 985.06 185.02 985.06 204.04 985.06 223.06 C 979.16 223.06 973.27 223.07 967.37 223.06 C 967.37 204.04 967.37 185.02 967.37 166.00 Z" />
<path fill="#ffffff" opacity="1.00" d=" M 1296.49 166.01 C 1302.36 165.99 1308.24 166.00 1314.12 166.00 C 1314.13 176.67 1314.12 187.33 1314.12 197.99 C 1314.13 201.94 1314.46 206.61 1317.83 209.25 C 1321.90 212.14 1328.33 211.41 1331.38 207.34 C 1333.48 204.75 1333.96 201.30 1333.98 198.06 C 1334.02 187.38 1333.98 176.69 1334.00 166.00 C 1339.87 166.00 1345.75 165.99 1351.63 166.01 C 1351.63 185.01 1351.62 204.02 1351.63 223.03 C 1345.75 223.09 1339.87 223.05 1334.00 223.06 C 1333.99 220.10 1333.98 217.14 1334.00 214.19 C 1330.89 218.68 1326.43 222.49 1320.95 223.54 C 1314.47 224.74 1306.91 223.83 1302.15 218.88 C 1297.90 214.37 1296.69 207.92 1296.51 201.94 C 1296.47 189.97 1296.52 177.99 1296.49 166.01 Z" />
<path fill="#ffffff" opacity="1.00" d=" M 1526.37 166.00 C 1532.26 166.00 1538.16 166.00 1544.06 166.00 C 1544.06 185.02 1544.06 204.04 1544.06 223.06 C 1538.15 223.04 1532.25 223.13 1526.35 223.01 C 1526.39 204.01 1526.36 185.00 1526.37 166.00 Z" />
<path fill="#ffffff" opacity="1.00" d=" M 1555.18 166.00 C 1571.25 166.00 1587.31 166.00 1603.37 166.00 C 1603.37 168.92 1603.37 171.84 1603.37 174.76 C 1594.33 186.50 1585.30 198.24 1576.29 210.00 C 1585.40 210.08 1594.52 209.83 1603.64 210.13 C 1603.49 214.44 1603.59 218.75 1603.56 223.06 C 1586.48 223.06 1569.40 223.07 1552.32 223.06 C 1552.36 220.56 1552.12 218.03 1552.44 215.55 C 1561.86 203.34 1571.42 191.24 1580.89 179.06 C 1572.32 179.06 1563.75 179.07 1555.19 179.06 C 1555.17 174.71 1555.18 170.35 1555.18 166.00 Z" />
<path fill="#ffffff" opacity="1.00" d=" M 609.37 276.01 C 615.26 275.99 621.16 276.00 627.06 276.00 C 627.06 304.02 627.07 332.04 627.06 360.06 C 621.16 360.06 615.27 360.07 609.37 360.06 C 609.37 332.04 609.38 304.02 609.37 276.01 Z" />
<path fill="#ffffff" opacity="1.00" d=" M 557.04 283.46 C 569.51 277.46 584.41 277.80 597.38 282.00 C 597.38 288.01 597.36 294.02 597.39 300.03 C 589.79 295.44 580.41 293.89 571.77 295.90 C 563.84 297.72 557.19 304.11 555.17 312.01 C 553.50 318.46 553.64 325.56 556.24 331.76 C 558.90 338.11 564.82 342.91 571.57 344.28 C 580.32 346.04 589.62 344.30 597.39 339.97 C 597.36 345.57 597.39 351.17 597.37 356.78 C 588.20 360.94 577.82 361.56 567.91 360.63 C 558.22 359.69 548.75 355.02 542.85 347.15 C 535.21 337.29 533.91 323.94 535.93 311.99 C 537.98 299.86 546.01 288.93 557.04 283.46 Z" />
<path fill="#ffffff" opacity="1.00" d=" M 643.74 306.73 C 654.35 302.28 666.85 299.99 677.90 304.17 C 685.57 307.10 689.50 315.43 689.72 323.25 C 689.93 335.52 689.76 347.79 689.81 360.06 C 684.27 360.07 678.73 360.06 673.19 360.06 C 673.18 357.28 673.18 354.51 673.18 351.74 C 667.83 361.12 654.63 363.60 645.55 358.45 C 635.09 352.14 635.73 334.16 646.58 328.55 C 654.79 324.23 664.40 324.78 673.31 323.12 C 673.39 319.45 671.41 315.49 667.58 314.63 C 659.33 312.82 650.72 315.63 643.74 320.04 C 643.75 315.60 643.75 311.17 643.74 306.73 M 658.15 335.93 C 653.52 337.90 653.05 345.26 657.41 347.79 C 662.03 350.33 668.46 348.67 671.24 344.16 C 673.49 340.98 673.31 336.92 673.25 333.22 C 668.23 334.13 662.88 333.84 658.15 335.93 Z" />
<path fill="#ffffff" opacity="1.00" d=" M 726.99 304.86 C 730.80 301.88 736.03 301.45 740.61 302.52 C 740.65 307.92 740.59 313.32 740.65 318.72 C 736.37 316.80 731.00 316.13 726.89 318.78 C 722.62 321.66 721.08 327.09 721.07 331.99 C 721.05 341.35 721.07 350.70 721.06 360.06 C 715.16 360.06 709.27 360.07 703.37 360.06 C 703.37 341.04 703.38 322.02 703.37 303.01 C 709.26 302.99 715.16 303.00 721.06 303.00 C 721.06 306.53 721.02 310.06 721.13 313.60 C 722.36 310.28 724.11 307.03 726.99 304.86 Z" />
<path fill="#ffffff" opacity="1.00" d=" M 768.47 302.64 C 776.75 301.33 785.72 301.75 793.21 305.84 C 800.31 309.66 805.13 317.10 806.24 325.03 C 807.61 334.45 805.90 344.98 799.16 352.10 C 793.08 358.70 783.76 361.22 775.03 361.01 C 766.42 361.05 757.31 358.28 751.59 351.54 C 744.45 343.21 743.59 331.02 746.55 320.82 C 749.40 311.04 758.61 304.16 768.47 302.64 M 771.48 315.74 C 765.55 317.65 762.99 324.29 762.93 330.04 C 762.74 335.60 763.43 342.24 768.29 345.79 C 772.78 348.69 779.22 348.84 783.64 345.72 C 787.72 342.51 788.60 336.92 788.75 332.04 C 788.80 327.46 788.37 322.40 785.30 318.74 C 781.96 314.88 776.12 314.32 771.48 315.74 Z" />
</g>
<g id="#d4050eff">
<path fill="#d4050e" opacity="1.00" d=" M 98.25 151.24 C 100.40 147.94 101.95 144.30 103.32 140.62 C 103.70 146.82 103.45 153.04 103.71 159.24 L 103.73 160.50 C 102.67 164.52 101.02 168.35 99.04 172.00 C 94.77 179.98 90.87 188.26 88.73 197.10 C 84.69 197.12 80.65 197.59 76.71 198.48 C 78.55 189.83 82.19 181.75 85.72 173.69 C 89.18 165.83 93.55 158.41 98.25 151.24 Z" />
</g>
<g id="#e5e5e5ff">
<path fill="#e5e5e5" opacity="1.00" d=" M 348.44 147.15 C 351.31 147.18 354.19 147.21 357.08 147.21 C 360.10 147.20 363.13 147.19 366.16 147.21 C 366.17 157.70 365.89 168.19 366.16 178.68 C 366.38 186.36 365.88 194.05 366.24 201.73 C 363.38 201.67 360.53 201.66 357.68 201.67 C 354.59 201.67 351.50 201.67 348.41 201.66 C 348.40 200.38 348.39 199.11 348.39 197.83 C 348.38 195.94 348.39 194.05 348.40 192.16 C 348.41 188.73 348.39 185.29 348.41 181.86 C 348.44 177.18 348.36 172.50 348.41 167.82 C 348.46 162.59 348.36 157.35 348.39 152.12 C 348.40 150.46 348.42 148.81 348.44 147.15 Z" />
<path fill="#e5e5e5" opacity="1.00" d=" M 436.38 157.99 C 440.59 162.36 444.79 166.74 448.91 171.20 C 444.89 175.43 440.84 179.64 436.81 183.86 C 429.77 191.21 422.74 198.56 415.72 205.92 C 410.63 211.21 405.57 216.53 400.49 221.84 C 396.18 217.48 391.95 213.06 387.74 208.61 C 392.16 204.02 396.57 199.42 400.99 194.84 C 409.67 185.78 418.38 176.76 427.05 167.71 C 430.14 164.45 433.26 161.23 436.38 157.99 Z" />
<path fill="#e5e5e5" opacity="1.00" d=" M 76.71 198.48 C 80.65 197.59 84.69 197.12 88.73 197.10 C 99.66 196.76 110.47 200.53 119.16 207.07 C 124.29 211.08 128.81 215.90 132.21 221.47 C 134.76 225.62 136.75 230.10 138.20 234.75 C 138.38 235.33 138.72 236.48 138.89 237.06 C 131.90 237.08 124.90 237.07 117.91 237.05 C 117.45 236.21 116.98 235.37 116.51 234.54 C 113.25 228.70 108.35 223.68 102.26 220.81 C 95.49 217.38 87.40 217.03 80.16 219.04 C 72.21 221.48 65.65 227.36 61.39 234.39 C 57.50 240.86 56.55 248.67 57.25 256.08 C 58.44 269.43 68.78 281.38 81.70 284.75 C 85.70 285.67 89.85 285.80 93.92 285.23 C 91.54 291.98 92.02 299.18 92.03 306.21 C 88.24 306.41 84.44 306.17 80.70 305.60 C 69.16 303.82 58.64 297.53 51.07 288.71 C 33.04 268.95 32.71 235.65 50.37 215.55 C 57.23 207.46 66.24 200.86 76.71 198.48 Z" />
<path fill="#e5e5e5" opacity="1.00" d=" M 409.37 243.27 C 413.33 243.26 417.29 243.27 421.26 243.26 C 430.25 243.26 439.24 243.27 448.23 243.27 C 453.03 243.26 457.83 243.26 462.63 243.27 C 462.63 249.42 462.64 255.58 462.62 261.73 C 457.77 261.74 452.91 261.73 448.06 261.73 C 440.73 261.73 433.41 261.74 426.08 261.73 C 420.51 261.73 414.95 261.74 409.38 261.73 C 409.36 255.57 409.36 249.42 409.37 243.27 Z" />
</g>
<g id="#e75a60ff">
<path fill="#e75a60" opacity="1.00" d=" M 109.99 149.02 C 120.51 148.94 131.07 149.57 141.56 148.63 C 144.39 148.91 147.22 149.29 150.05 149.63 C 147.34 150.32 144.63 151.02 141.93 151.73 C 152.45 152.04 162.99 151.39 173.49 152.24 C 171.86 153.52 170.25 155.26 167.99 155.14 C 163.30 155.30 158.61 154.96 153.93 155.49 C 158.38 155.73 162.93 155.85 167.11 157.57 C 160.38 158.67 153.54 157.34 146.82 158.53 C 154.20 159.58 161.66 158.82 169.08 159.34 C 161.08 162.05 152.56 159.39 144.51 161.61 C 133.20 161.97 121.89 161.39 110.59 161.92 C 110.29 160.00 109.83 158.11 109.40 156.22 C 109.49 153.81 109.78 151.41 109.99 149.02 Z" />
</g>
<g id="#f3535bff">
<path fill="#f3535b" opacity="1.00" d=" M 173.49 152.24 C 231.79 152.27 290.10 152.40 348.39 152.12 C 348.36 157.35 348.46 162.59 348.41 167.82 C 339.67 169.05 330.83 168.65 322.04 168.71 C 307.03 168.74 292.01 168.74 277.00 168.73 C 271.32 169.07 265.64 169.40 259.97 168.85 C 225.91 168.63 191.84 168.92 157.80 168.58 C 158.93 168.08 160.06 167.58 161.18 167.05 C 154.57 165.15 147.64 166.17 140.88 165.49 C 148.62 164.75 156.41 165.56 164.14 164.68 C 158.09 161.40 151.07 162.47 144.51 161.61 C 152.56 159.39 161.08 162.05 169.08 159.34 C 161.66 158.82 154.20 159.58 146.82 158.53 C 153.54 157.34 160.38 158.67 167.11 157.57 C 162.93 155.85 158.38 155.73 153.93 155.49 C 158.61 154.96 163.30 155.30 167.99 155.14 C 170.25 155.26 171.86 153.52 173.49 152.24 Z" />
</g>
<g id="#e44c53ff">
<path fill="#e44c53" opacity="1.00" d=" M 367.13 159.00 C 374.73 157.39 382.93 160.34 390.19 157.24 C 389.74 161.24 388.97 165.20 388.10 169.12 C 380.97 169.17 373.84 169.28 366.71 168.98 C 366.64 165.65 366.77 162.31 367.13 159.00 Z" />
</g>
<g id="#ea0d18ff">
<path fill="#ea0d18" opacity="1.00" d=" M 103.71 159.24 C 107.91 168.97 109.41 180.13 116.66 188.31 C 117.97 190.35 119.16 192.48 120.74 194.34 C 123.43 194.97 126.22 194.92 128.96 195.26 C 129.30 196.01 129.64 196.77 129.98 197.52 C 136.15 197.60 142.33 197.83 148.49 197.38 C 148.68 201.13 148.75 204.89 148.69 208.65 C 146.66 209.01 144.30 209.11 143.15 211.13 C 141.62 213.84 138.20 212.87 135.64 213.23 C 135.99 213.89 136.34 214.55 136.70 215.22 C 135.38 215.64 134.06 216.07 132.74 216.50 C 132.43 218.14 132.17 219.79 132.21 221.47 C 128.81 215.90 124.29 211.08 119.16 207.07 C 120.30 202.76 116.52 199.62 115.08 195.94 C 111.98 188.64 107.91 181.67 106.20 173.85 C 105.17 169.45 104.00 165.04 103.73 160.50 L 103.71 159.24 Z" />
</g>
<g id="#dd0710ff">
<path fill="#dd0710" opacity="1.00" d=" M 103.73 160.50 C 104.00 165.04 105.17 169.45 106.20 173.85 C 107.91 181.67 111.98 188.64 115.08 195.94 C 116.52 199.62 120.30 202.76 119.16 207.07 C 110.47 200.53 99.66 196.76 88.73 197.10 C 90.87 188.26 94.77 179.98 99.04 172.00 C 101.02 168.35 102.67 164.52 103.73 160.50 Z" />
</g>
<g id="#e54b52ff">
<path fill="#e54b52" opacity="1.00" d=" M 110.59 161.92 C 121.89 161.39 133.20 161.97 144.51 161.61 C 151.07 162.47 158.09 161.40 164.14 164.68 C 156.41 165.56 148.62 164.75 140.88 165.49 C 147.64 166.17 154.57 165.15 161.18 167.05 C 160.06 167.58 158.93 168.08 157.80 168.58 C 150.51 167.88 143.21 168.49 135.95 169.20 C 127.93 169.37 119.90 169.28 111.88 169.23 C 111.31 166.81 110.95 164.36 110.59 161.92 Z" />
</g>
<g id="#e71620ff">
<path fill="#e71620" opacity="1.00" d=" M 386.87 180.45 C 391.01 174.68 391.38 167.26 395.15 161.36 C 394.89 164.38 394.67 167.42 394.53 170.45 C 392.17 176.42 390.42 182.61 387.90 188.52 C 385.15 191.28 382.76 194.40 379.82 196.97 C 376.27 200.06 371.24 198.97 366.95 199.13 C 367.04 196.83 367.06 194.53 367.17 192.23 C 371.60 191.73 376.06 191.97 380.50 191.63 C 382.58 187.88 384.70 184.15 386.87 180.45 Z" />
</g>
<g id="#f23a45ff">
<path fill="#f23a45" opacity="1.00" d=" M 135.95 169.20 C 143.21 168.49 150.51 167.88 157.80 168.58 C 191.84 168.92 225.91 168.63 259.97 168.85 C 265.64 169.40 271.32 169.07 277.00 168.73 C 292.01 168.74 307.03 168.74 322.04 168.71 C 330.83 168.65 339.67 169.05 348.41 167.82 C 348.36 172.50 348.44 177.18 348.41 181.86 C 295.27 181.70 242.13 181.88 189.00 181.77 C 184.45 181.67 179.90 181.81 175.39 182.38 C 166.63 180.84 157.81 182.86 149.02 181.83 C 137.93 181.73 126.81 181.40 115.73 181.94 C 114.31 177.74 112.83 173.56 111.88 169.23 C 119.90 169.28 127.93 169.37 135.95 169.20 Z" />
</g>
<g id="#e63942ff">
<path fill="#e63942" opacity="1.00" d=" M 366.71 168.98 C 373.84 169.28 380.97 169.17 388.10 169.12 C 387.36 172.28 386.51 175.41 385.84 178.58 C 385.13 179.60 384.40 180.60 383.67 181.59 C 378.29 181.89 372.89 181.93 367.52 181.61 C 367.25 181.04 366.72 179.91 366.45 179.35 C 366.46 175.89 366.75 172.44 366.71 168.98 Z" />
</g>
<g id="#de0711ff">
<path fill="#de0711" opacity="1.00" d=" M 394.53 170.45 C 394.75 173.72 394.20 177.04 394.74 180.27 C 396.43 185.29 399.21 189.85 400.99 194.84 C 396.57 199.42 392.16 204.02 387.74 208.61 C 391.95 213.06 396.18 217.48 400.49 221.84 C 405.57 216.53 410.63 211.21 415.72 205.92 C 418.58 218.17 421.20 230.63 421.26 243.26 C 417.29 243.27 413.33 243.26 409.37 243.27 C 409.36 249.42 409.36 255.57 409.38 261.73 C 414.95 261.74 420.51 261.73 426.08 261.73 C 425.32 266.82 424.72 271.93 424.07 277.03 C 419.43 307.14 406.83 335.99 387.76 359.75 C 385.85 362.23 385.35 365.43 384.82 368.43 C 383.97 366.59 382.99 364.81 382.01 363.04 C 381.59 364.61 381.16 366.17 380.73 367.74 C 379.51 366.15 378.29 364.57 377.20 362.90 C 374.73 355.56 373.22 347.41 367.80 341.53 C 367.66 337.92 367.20 334.28 365.68 330.96 C 367.74 325.31 371.80 320.75 374.37 315.36 C 377.48 309.40 380.41 303.29 382.02 296.72 C 398.47 282.57 401.44 256.36 389.83 238.31 C 389.39 229.87 387.68 221.53 385.61 213.35 C 384.80 209.77 382.64 206.42 382.70 202.70 C 384.15 197.88 386.96 193.53 387.90 188.52 C 390.42 182.61 392.17 176.42 394.53 170.45 Z" />
</g>
<g id="#e7272fff">
<path fill="#e7272f" opacity="1.00" d=" M 366.16 178.68 L 366.45 179.35 C 366.72 179.91 367.25 181.04 367.52 181.61 C 372.89 181.93 378.29 181.89 383.67 181.59 C 384.40 180.60 385.13 179.60 385.84 178.58 C 386.10 179.05 386.61 179.98 386.87 180.45 C 384.70 184.15 382.58 187.88 380.50 191.63 C 376.06 191.97 371.60 191.73 367.17 192.23 C 367.06 194.53 367.04 196.83 366.95 199.13 C 366.72 200.00 366.49 200.86 366.24 201.73 C 365.88 194.05 366.38 186.36 366.16 178.68 Z" />
</g>
<g id="#ea222dff">
<path fill="#ea222d" opacity="1.00" d=" M 115.73 181.94 C 126.81 181.40 137.93 181.73 149.02 181.83 C 157.81 182.86 166.63 180.84 175.39 182.38 C 168.22 183.95 160.73 182.60 153.65 184.66 C 159.44 185.65 165.34 184.95 171.17 185.49 C 166.31 185.91 161.42 186.06 156.62 186.99 C 157.04 187.84 157.46 188.70 157.89 189.56 C 155.58 189.91 153.27 190.26 150.96 190.60 C 155.77 191.35 160.62 191.74 165.46 192.30 C 163.31 192.72 161.19 193.22 159.06 193.69 C 164.07 194.61 169.15 195.02 174.21 195.55 C 168.63 196.12 162.73 194.62 157.48 197.11 C 154.82 197.17 152.15 197.14 149.49 197.31 C 149.24 197.33 148.74 197.37 148.49 197.38 C 142.33 197.83 136.15 197.60 129.98 197.52 C 129.64 196.77 129.30 196.01 128.96 195.26 C 126.22 194.92 123.43 194.97 120.74 194.34 C 119.16 192.48 117.97 190.35 116.66 188.31 C 116.34 186.18 116.12 184.05 115.73 181.94 Z" />
</g>
<g id="#f72833ff">
<path fill="#f72833" opacity="1.00" d=" M 175.39 182.38 C 179.90 181.81 184.45 181.67 189.00 181.77 C 242.13 181.88 295.27 181.70 348.41 181.86 C 348.39 185.29 348.41 188.73 348.40 192.16 C 287.42 192.45 226.44 192.24 165.46 192.30 C 160.62 191.74 155.77 191.35 150.96 190.60 C 153.27 190.26 155.58 189.91 157.89 189.56 C 157.46 188.70 157.04 187.84 156.62 186.99 C 161.42 186.06 166.31 185.91 171.17 185.49 C 165.34 184.95 159.44 185.65 153.65 184.66 C 160.73 182.60 168.22 183.95 175.39 182.38 Z" />
</g>
<g id="#cb050bff">
<path fill="#cb050b" opacity="1.00" d=" M 415.72 205.92 C 422.74 198.56 429.77 191.21 436.81 183.86 C 443.56 202.96 447.19 223.06 448.23 243.27 C 439.24 243.27 430.25 243.26 421.26 243.26 C 421.20 230.63 418.58 218.17 415.72 205.92 Z" />
</g>
<g id="#e80814ff">
<path fill="#e80814" opacity="1.00" d=" M 379.82 196.97 C 382.76 194.40 385.15 191.28 387.90 188.52 C 386.96 193.53 384.15 197.88 382.70 202.70 C 382.64 206.42 384.80 209.77 385.61 213.35 C 387.68 221.53 389.39 229.87 389.83 238.31 C 384.85 230.77 377.70 224.60 369.23 221.33 C 369.41 217.27 369.67 213.14 371.49 209.42 C 366.80 207.97 361.92 207.35 357.10 206.46 C 357.29 204.86 357.48 203.27 357.68 201.67 C 360.53 201.66 363.38 201.67 366.24 201.73 C 366.49 200.86 366.72 200.00 366.95 199.13 C 371.24 198.97 376.27 200.06 379.82 196.97 Z" />
</g>
<g id="#fb1221ff">
<path fill="#fb1221" opacity="1.00" d=" M 165.46 192.30 C 226.44 192.24 287.42 192.45 348.40 192.16 C 348.39 194.05 348.38 195.94 348.39 197.83 C 342.56 197.59 336.81 198.79 331.00 198.92 C 328.21 199.06 325.39 198.94 322.63 199.40 C 319.71 200.14 317.03 201.60 314.22 202.65 C 316.49 209.63 326.10 206.11 329.92 211.40 C 328.31 211.80 326.70 212.18 325.09 212.56 C 327.04 212.86 329.00 213.17 330.95 213.48 C 327.90 214.10 324.87 214.79 321.86 215.57 C 325.89 215.94 329.93 216.07 333.98 215.97 C 340.71 215.79 347.36 217.03 354.08 217.14 C 355.84 216.99 357.34 217.86 358.63 218.95 C 349.44 218.24 339.87 220.14 332.34 225.66 C 325.27 224.27 318.09 225.04 310.96 225.12 C 310.92 223.06 310.87 220.99 310.81 218.93 C 306.29 219.06 301.90 220.28 297.67 221.78 C 291.91 223.96 287.42 228.42 283.75 233.23 C 283.68 229.80 283.65 226.38 283.67 222.96 C 277.26 222.68 270.85 222.58 264.43 222.52 C 264.43 223.12 264.43 224.32 264.43 224.92 C 257.17 224.76 249.90 224.55 242.66 225.21 C 232.36 218.52 219.37 217.39 207.47 219.24 C 200.43 220.20 193.54 223.51 189.13 229.21 C 182.60 229.80 176.03 229.57 169.48 229.83 C 169.51 218.94 169.40 208.05 169.47 197.16 C 165.47 197.14 161.48 197.16 157.48 197.11 C 162.73 194.62 168.63 196.12 174.21 195.55 C 169.15 195.02 164.07 194.61 159.06 193.69 C 161.19 193.22 163.31 192.72 165.46 192.30 Z" />
</g>
<g id="#ed0915ff">
<path fill="#ed0915" opacity="1.00" d=" M 148.49 197.38 C 148.74 197.37 149.24 197.33 149.49 197.31 C 149.50 233.80 149.53 270.30 149.53 306.79 C 155.45 306.80 161.37 306.83 167.28 306.80 C 161.21 310.78 155.01 315.44 151.45 321.89 C 146.94 326.42 142.09 330.64 138.29 335.84 C 136.31 337.42 134.31 338.99 132.40 340.66 C 132.28 338.60 132.16 336.54 132.01 334.49 C 133.63 331.97 135.27 329.47 137.02 327.05 C 138.10 325.43 139.36 323.42 138.54 321.42 C 136.85 317.37 133.91 314.00 132.03 310.04 C 128.93 304.27 127.47 297.77 123.99 292.19 C 131.23 285.18 136.54 276.16 138.88 266.34 C 131.93 266.31 124.98 266.33 118.04 266.34 C 117.49 267.31 116.94 268.29 116.38 269.26 C 115.14 257.78 113.40 245.88 116.51 234.54 C 116.98 235.37 117.45 236.21 117.91 237.05 C 124.90 237.07 131.90 237.08 138.89 237.06 C 138.72 236.48 138.38 235.33 138.20 234.75 C 141.64 238.53 144.74 242.65 148.68 245.94 C 149.61 233.52 148.67 221.08 148.69 208.65 C 148.75 204.89 148.68 201.13 148.49 197.38 Z" />
</g>
<g id="#eeeeeeff">
<path fill="#eeeeee" opacity="1.00" d=" M 149.49 197.31 C 152.15 197.14 154.82 197.17 157.48 197.11 C 161.48 197.16 165.47 197.14 169.47 197.16 C 169.40 208.05 169.51 218.94 169.48 229.83 C 169.46 239.51 169.46 249.18 169.48 258.86 C 169.47 274.29 169.46 289.71 169.47 305.14 C 169.45 305.55 169.41 306.37 169.40 306.78 C 168.87 306.79 167.81 306.80 167.28 306.80 C 161.37 306.83 155.45 306.80 149.53 306.79 C 149.53 270.30 149.50 233.80 149.49 197.31 Z" />
</g>
<g id="#f20f1cff">
<path fill="#f20f1c" opacity="1.00" d=" M 331.00 198.92 C 336.81 198.79 342.56 197.59 348.39 197.83 C 348.39 199.11 348.40 200.38 348.41 201.66 C 351.50 201.67 354.59 201.67 357.68 201.67 C 357.48 203.27 357.29 204.86 357.10 206.46 C 361.92 207.35 366.80 207.97 371.49 209.42 C 369.67 213.14 369.41 217.27 369.23 221.33 C 365.83 220.03 362.24 219.30 358.63 218.95 C 357.34 217.86 355.84 216.99 354.08 217.14 C 347.36 217.03 340.71 215.79 333.98 215.97 C 329.93 216.07 325.89 215.94 321.86 215.57 C 324.87 214.79 327.90 214.10 330.95 213.48 C 329.00 213.17 327.04 212.86 325.09 212.56 C 326.70 212.18 328.31 211.80 329.92 211.40 C 326.10 206.11 316.49 209.63 314.22 202.65 C 317.03 201.60 319.71 200.14 322.63 199.40 C 325.39 198.94 328.21 199.06 331.00 198.92 Z" />
</g>
<g id="#f01723ff">
<path fill="#f01723" opacity="1.00" d=" M 143.15 211.13 C 144.30 209.11 146.66 209.01 148.69 208.65 C 148.67 221.08 149.61 233.52 148.68 245.94 C 144.74 242.65 141.64 238.53 138.20 234.75 C 136.75 230.10 134.76 225.62 132.21 221.47 C 132.17 219.79 132.43 218.14 132.74 216.50 C 134.06 216.07 135.38 215.64 136.70 215.22 C 136.34 214.55 135.99 213.89 135.64 213.23 C 138.20 212.87 141.62 213.84 143.15 211.13 Z" />
</g>
<g id="#e00711ff">
<path fill="#e00711" opacity="1.00" d=" M 80.16 219.04 C 87.40 217.03 95.49 217.38 102.26 220.81 C 108.35 223.68 113.25 228.70 116.51 234.54 C 113.40 245.88 115.14 257.78 116.38 269.26 C 111.74 277.59 103.44 283.85 93.92 285.23 C 89.85 285.80 85.70 285.67 81.70 284.75 C 81.17 275.48 78.54 266.39 79.03 257.05 C 79.43 249.17 78.54 241.26 79.41 233.40 C 79.94 228.63 81.39 223.83 80.16 219.04 Z" />
</g>
<g id="#f1f1f1ff">
<path fill="#f1f1f1" opacity="1.00" d=" M 207.47 219.24 C 219.37 217.39 232.36 218.52 242.66 225.21 C 245.23 227.14 247.21 229.75 248.54 232.67 C 240.29 232.66 231.99 233.78 224.40 237.19 C 219.35 235.92 213.65 235.46 208.87 237.83 C 205.10 239.79 203.81 244.13 202.83 247.95 C 196.19 247.84 189.54 247.92 182.90 247.78 C 183.67 241.27 184.99 234.50 189.13 229.21 C 193.54 223.51 200.43 220.20 207.47 219.24 Z" />
</g>
<g id="#f2f2f2ff">
<path fill="#f2f2f2" opacity="1.00" d=" M 297.67 221.78 C 301.90 220.28 306.29 219.06 310.81 218.93 C 310.87 220.99 310.92 223.06 310.96 225.12 C 311.05 230.19 311.12 235.25 311.13 240.32 C 303.28 238.64 294.61 241.11 289.58 247.55 C 283.71 254.26 284.29 263.75 284.27 272.08 C 278.48 267.48 272.05 263.86 265.47 260.54 C 264.63 247.88 266.17 235.10 264.43 222.52 C 270.85 222.58 277.26 222.68 283.67 222.96 C 283.65 226.38 283.68 229.80 283.75 233.23 C 287.42 228.42 291.91 223.96 297.67 221.78 Z" />
</g>
<g id="#eaeaeaff">
<path fill="#eaeaea" opacity="1.00" d=" M 332.34 225.66 C 339.87 220.14 349.44 218.24 358.63 218.95 C 362.24 219.30 365.83 220.03 369.23 221.33 C 377.70 224.60 384.85 230.77 389.83 238.31 C 401.44 256.36 398.47 282.57 382.02 296.72 C 376.92 301.25 370.79 304.68 364.13 306.24 C 362.54 306.06 360.96 305.83 359.39 305.62 C 358.84 299.18 357.69 292.79 357.64 286.31 C 367.74 285.03 375.70 276.00 376.93 266.10 C 378.46 255.89 372.70 244.90 363.01 241.02 C 355.08 238.19 345.38 239.67 339.57 246.08 C 336.55 239.90 331.79 234.84 326.66 230.36 C 328.44 228.66 330.35 227.11 332.34 225.66 Z" />
<path fill="#eaeaea" opacity="1.00" d=" M 118.04 266.34 C 124.98 266.33 131.93 266.31 138.88 266.34 C 136.54 276.16 131.23 285.18 123.99 292.19 C 116.94 299.30 107.53 303.88 97.69 305.56 C 95.81 305.85 93.92 306.06 92.03 306.21 C 92.02 299.18 91.54 291.98 93.92 285.23 C 103.44 283.85 111.74 277.59 116.38 269.26 C 116.94 268.29 117.49 267.31 118.04 266.34 Z" />
</g>
<g id="#d0050dff">
<path fill="#d0050d" opacity="1.00" d=" M 61.39 234.39 C 65.65 227.36 72.21 221.48 80.16 219.04 C 81.39 223.83 79.94 228.63 79.41 233.40 C 78.54 241.26 79.43 249.17 79.03 257.05 C 78.54 266.39 81.17 275.48 81.70 284.75 C 68.78 281.38 58.44 269.43 57.25 256.08 C 56.55 248.67 57.50 240.86 61.39 234.39 Z" />
</g>
<g id="#f9f9f9ff">
<path fill="#f9f9f9" opacity="1.00" d=" M 264.43 224.92 C 264.43 224.32 264.43 223.12 264.43 222.52 C 266.17 235.10 264.63 247.88 265.47 260.54 C 272.05 263.86 278.48 267.48 284.27 272.08 C 284.27 283.54 284.17 295.00 284.33 306.45 C 277.72 307.20 271.03 306.64 264.38 306.80 C 264.37 305.57 264.37 304.35 264.37 303.13 C 264.37 297.10 264.38 291.08 264.38 285.05 C 264.40 265.01 264.43 244.96 264.43 224.92 Z" />
</g>
<g id="#fd2431ff">
<path fill="#fd2431" opacity="1.00" d=" M 242.66 225.21 C 249.90 224.55 257.17 224.76 264.43 224.92 C 264.43 244.96 264.40 265.01 264.38 285.05 C 259.87 285.03 255.36 284.98 250.85 284.95 C 250.72 270.52 251.08 256.07 250.64 241.65 C 250.39 238.57 249.66 235.54 248.54 232.67 C 247.21 229.75 245.23 227.14 242.66 225.21 Z" />
</g>
<g id="#fb2430ff">
<path fill="#fb2430" opacity="1.00" d=" M 310.96 225.12 C 318.09 225.04 325.27 224.27 332.34 225.66 C 330.35 227.11 328.44 228.66 326.66 230.36 C 315.83 240.60 311.01 256.29 313.54 270.90 C 304.71 276.45 295.25 280.90 285.46 284.45 C 285.02 288.08 285.00 291.75 285.38 295.39 C 293.10 296.95 300.55 299.52 308.06 301.84 C 315.68 305.42 323.59 308.64 330.40 313.68 C 327.99 313.92 325.59 314.16 323.19 314.41 C 327.02 317.34 331.41 319.75 334.39 323.62 C 335.55 325.00 334.53 326.79 334.42 328.34 C 330.48 325.58 326.33 323.12 322.04 320.95 C 317.67 318.70 312.82 317.56 308.42 315.36 C 305.54 313.98 302.83 312.27 299.88 311.06 C 296.66 309.73 293.13 309.33 289.96 307.85 C 288.16 307.15 286.36 305.74 284.33 306.45 C 284.17 295.00 284.27 283.54 284.27 272.08 C 284.29 263.75 283.71 254.26 289.58 247.55 C 294.61 241.11 303.28 238.64 311.13 240.32 C 311.12 235.25 311.05 230.19 310.96 225.12 Z" />
</g>
<g id="#fa2430ff">
<path fill="#fa2430" opacity="1.00" d=" M 169.48 229.83 C 176.03 229.57 182.60 229.80 189.13 229.21 C 184.99 234.50 183.67 241.27 182.90 247.78 C 189.54 247.92 196.19 247.84 202.83 247.95 C 203.81 244.13 205.10 239.79 208.87 237.83 C 213.65 235.46 219.35 235.92 224.40 237.19 C 230.98 238.72 232.28 249.30 225.73 251.74 C 215.22 254.29 203.93 254.30 194.05 259.13 C 189.50 261.44 185.77 265.28 183.63 269.92 C 179.09 266.01 173.95 262.86 169.48 258.86 C 169.46 249.18 169.46 239.51 169.48 229.83 Z" />
</g>
<g id="#f0f0f0ff">
<path fill="#f0f0f0" opacity="1.00" d=" M 313.54 270.90 C 311.01 256.29 315.83 240.60 326.66 230.36 C 331.79 234.84 336.55 239.90 339.57 246.08 C 333.99 251.75 331.46 260.23 333.22 268.01 C 335.39 279.05 346.18 287.92 357.64 286.31 C 357.69 292.79 358.84 299.18 359.39 305.62 C 360.96 305.83 362.54 306.06 364.13 306.24 C 356.68 307.04 348.74 307.67 341.55 305.09 C 327.16 299.59 315.98 286.16 313.54 270.90 Z" />
</g>
<g id="#f4f4f4ff">
<path fill="#f4f4f4" opacity="1.00" d=" M 224.40 237.19 C 231.99 233.78 240.29 232.66 248.54 232.67 C 249.66 235.54 250.39 238.57 250.64 241.65 C 249.75 246.96 249.97 252.35 249.73 257.71 C 243.20 260.13 234.83 258.12 229.70 263.69 C 223.05 268.43 214.31 267.75 207.07 271.05 C 203.87 272.46 202.06 275.69 201.34 278.98 C 200.95 282.60 201.67 286.39 203.96 289.28 C 202.96 291.92 201.88 294.57 201.50 297.39 C 200.98 300.35 201.28 303.67 199.28 306.15 C 197.90 305.80 196.54 305.44 195.19 305.01 C 191.16 303.68 187.81 300.88 185.30 297.52 C 180.09 289.38 180.36 278.74 183.63 269.92 C 185.77 265.28 189.50 261.44 194.05 259.13 C 203.93 254.30 215.22 254.29 225.73 251.74 C 232.28 249.30 230.98 238.72 224.40 237.19 Z" />
</g>
<g id="#f20916ff">
<path fill="#f20916" opacity="1.00" d=" M 339.57 246.08 C 345.38 239.67 355.08 238.19 363.01 241.02 C 372.70 244.90 378.46 255.89 376.93 266.10 C 375.70 276.00 367.74 285.03 357.64 286.31 C 346.18 287.92 335.39 279.05 333.22 268.01 C 331.46 260.23 333.99 251.75 339.57 246.08 Z" />
</g>
<g id="#fafafaff">
<path fill="#fafafa" opacity="1.00" d=" M 250.64 241.65 C 251.08 256.07 250.72 270.52 250.85 284.95 C 250.85 291.01 250.85 297.07 250.86 303.13 C 250.86 304.35 250.85 305.58 250.85 306.81 C 244.08 306.76 237.31 306.98 230.55 306.59 C 230.61 303.78 230.63 300.98 230.61 298.17 C 225.32 302.63 218.71 305.27 211.87 306.17 C 207.70 306.79 203.43 307.04 199.28 306.15 C 201.28 303.67 200.98 300.35 201.50 297.39 C 201.88 294.57 202.96 291.92 203.96 289.28 C 209.11 293.19 216.30 291.92 221.66 289.13 C 224.51 287.51 226.98 285.10 228.07 281.95 C 230.33 276.16 229.89 269.78 229.70 263.69 C 234.83 258.12 243.20 260.13 249.73 257.71 C 249.97 252.35 249.75 246.96 250.64 241.65 Z" />
</g>
<g id="#f70a18ff">
<path fill="#f70a18" opacity="1.00" d=" M 169.48 258.86 C 173.95 262.86 179.09 266.01 183.63 269.92 C 180.36 278.74 180.09 289.38 185.30 297.52 C 180.34 300.68 174.84 302.79 169.47 305.14 C 169.46 289.71 169.47 274.29 169.48 258.86 Z" />
</g>
<g id="#ca040bff">
<path fill="#ca040b" opacity="1.00" d=" M 426.08 261.73 C 433.41 261.74 440.73 261.73 448.06 261.73 C 447.03 270.39 446.21 279.08 444.58 287.66 C 437.57 323.85 420.25 358.03 395.05 384.96 C 392.29 388.54 388.42 391.27 386.42 395.41 C 385.19 397.83 383.94 400.25 382.66 402.64 C 381.95 397.83 383.83 393.22 384.54 388.53 C 385.92 381.94 386.59 375.02 384.82 368.43 C 385.35 365.43 385.85 362.23 387.76 359.75 C 406.83 335.99 419.43 307.14 424.07 277.03 C 424.72 271.93 425.32 266.82 426.08 261.73 Z" />
</g>
<g id="#fc2430ff">
<path fill="#fc2430" opacity="1.00" d=" M 207.07 271.05 C 214.31 267.75 223.05 268.43 229.70 263.69 C 229.89 269.78 230.33 276.16 228.07 281.95 C 226.98 285.10 224.51 287.51 221.66 289.13 C 220.36 287.54 219.16 285.67 217.05 285.10 C 211.77 283.17 206.52 281.17 201.34 278.98 C 202.06 275.69 203.87 272.46 207.07 271.05 Z" />
</g>
<g id="#f8121eff">
<path fill="#f8121e" opacity="1.00" d=" M 285.46 284.45 C 295.25 280.90 304.71 276.45 313.54 270.90 C 315.98 286.16 327.16 299.59 341.55 305.09 C 341.87 311.36 348.19 313.99 352.11 317.87 C 356.95 321.92 360.07 327.81 365.68 330.96 C 367.20 334.28 367.66 337.92 367.80 341.53 C 364.24 340.21 362.22 336.90 359.63 334.36 C 357.04 331.77 353.41 330.85 350.14 329.49 C 344.15 323.53 337.63 318.07 330.40 313.68 C 323.59 308.64 315.68 305.42 308.06 301.84 C 300.55 299.52 293.10 296.95 285.38 295.39 C 285.00 291.75 285.02 288.08 285.46 284.45 Z" />
</g>
<g id="#fc1624ff">
<path fill="#fc1624" opacity="1.00" d=" M 201.34 278.98 C 206.52 281.17 211.77 283.17 217.05 285.10 C 219.16 285.67 220.36 287.54 221.66 289.13 C 216.30 291.92 209.11 293.19 203.96 289.28 C 201.67 286.39 200.95 282.60 201.34 278.98 Z" />
</g>
<g id="#fb2a37ff">
<path fill="#fb2a37" opacity="1.00" d=" M 250.85 284.95 C 255.36 284.98 259.87 285.03 264.38 285.05 C 264.38 291.08 264.37 297.10 264.37 303.13 C 259.87 303.21 255.36 303.20 250.86 303.13 C 250.85 297.07 250.85 291.01 250.85 284.95 Z" />
</g>
<g id="#c6040aff">
<path fill="#c6040a" opacity="1.00" d=" M 51.07 288.71 C 58.64 297.53 69.16 303.82 80.70 305.60 C 82.64 314.58 86.72 322.88 90.90 330.99 C 95.98 341.76 102.69 351.68 110.03 361.02 C 112.75 364.19 113.52 368.39 114.20 372.38 C 113.01 377.51 113.06 382.83 113.29 388.07 C 113.55 393.67 117.88 398.56 116.45 404.33 C 114.11 401.73 112.08 398.83 109.43 396.53 C 104.41 392.54 100.92 387.08 96.31 382.67 C 79.49 363.13 66.27 340.41 58.13 315.91 C 55.17 307.03 52.09 298.06 51.07 288.71 Z" />
</g>
<g id="#e30712ff">
<path fill="#e30712" opacity="1.00" d=" M 97.69 305.56 C 107.53 303.88 116.94 299.30 123.99 292.19 C 127.47 297.77 128.93 304.27 132.03 310.04 C 133.91 314.00 136.85 317.37 138.54 321.42 C 139.36 323.42 138.10 325.43 137.02 327.05 C 135.27 329.47 133.63 331.97 132.01 334.49 C 126.41 339.74 122.11 346.17 119.35 353.33 C 119.40 350.50 120.03 347.29 118.25 344.81 C 109.67 332.77 102.25 319.67 97.69 305.56 Z" />
</g>
<g id="#e90814ff">
<path fill="#e90814" opacity="1.00" d=" M 364.13 306.24 C 370.79 304.68 376.92 301.25 382.02 296.72 C 380.41 303.29 377.48 309.40 374.37 315.36 C 371.80 320.75 367.74 325.31 365.68 330.96 C 360.07 327.81 356.95 321.92 352.11 317.87 C 348.19 313.99 341.87 311.36 341.55 305.09 C 348.74 307.67 356.68 307.04 364.13 306.24 Z" />
</g>
<g id="#f31c29ff">
<path fill="#f31c29" opacity="1.00" d=" M 169.47 305.14 C 174.84 302.79 180.34 300.68 185.30 297.52 C 187.81 300.88 191.16 303.68 195.19 305.01 C 183.33 310.82 170.57 316.08 161.36 325.85 C 158.36 327.69 155.18 329.23 151.94 330.59 C 153.01 327.80 154.70 325.31 156.56 322.99 C 154.86 322.63 153.15 322.25 151.45 321.89 C 155.01 315.44 161.21 310.78 167.28 306.80 C 167.81 306.80 168.87 306.79 169.40 306.78 C 169.41 306.37 169.45 305.55 169.47 305.14 Z" />
</g>
<g id="#f43641ff">
<path fill="#f43641" opacity="1.00" d=" M 230.61 298.17 C 230.63 300.98 230.61 303.78 230.55 306.59 C 237.31 306.98 244.08 306.76 250.85 306.81 C 250.85 305.58 250.86 304.35 250.86 303.13 C 255.36 303.20 259.87 303.21 264.37 303.13 C 264.37 304.35 264.37 305.57 264.38 306.80 C 271.03 306.64 277.72 307.20 284.33 306.45 C 286.36 305.74 288.16 307.15 289.96 307.85 C 293.13 309.33 296.66 309.73 299.88 311.06 C 302.83 312.27 305.54 313.98 308.42 315.36 C 312.82 317.56 317.67 318.70 322.04 320.95 C 326.33 323.12 330.48 325.58 334.42 328.34 C 338.96 333.31 342.79 339.03 345.36 345.26 C 344.42 346.52 343.15 347.63 342.61 349.13 C 344.95 353.76 345.45 358.95 346.82 363.89 C 344.64 362.77 342.55 361.51 340.53 360.14 C 340.11 361.07 339.69 362.01 339.28 362.96 C 335.57 360.57 332.11 357.82 328.60 355.17 C 326.43 352.25 324.73 349.04 323.27 345.72 C 321.47 341.64 318.38 338.36 315.33 335.19 C 316.04 334.24 316.75 333.30 317.47 332.36 C 310.93 327.54 303.42 324.39 296.19 320.81 C 288.26 316.87 279.37 315.73 270.96 313.21 C 260.09 311.61 248.99 310.48 238.04 312.01 C 229.43 312.21 221.31 315.27 212.98 317.07 C 206.90 318.33 201.71 321.90 196.02 324.18 C 190.79 326.31 186.19 329.60 181.27 332.31 C 178.29 333.58 175.26 334.75 172.21 335.82 C 172.81 333.91 173.43 332.00 174.05 330.10 C 180.07 327.71 183.93 322.18 189.55 319.16 C 195.72 314.28 202.96 310.86 210.57 308.87 C 210.89 308.19 211.55 306.84 211.87 306.17 C 218.71 305.27 225.32 302.63 230.61 298.17 Z" />
</g>
<g id="#f42d38ff">
<path fill="#f42d38" opacity="1.00" d=" M 195.19 305.01 C 196.54 305.44 197.90 305.80 199.28 306.15 C 203.43 307.04 207.70 306.79 211.87 306.17 C 211.55 306.84 210.89 308.19 210.57 308.87 C 202.96 310.86 195.72 314.28 189.55 319.16 C 183.93 322.18 180.07 327.71 174.05 330.10 C 170.05 331.36 166.11 332.88 162.40 334.86 C 163.57 332.00 164.96 329.23 166.80 326.74 C 165.00 326.40 163.18 326.10 161.36 325.85 C 170.57 316.08 183.33 310.82 195.19 305.01 Z" />
</g>
<g id="#d8060fff">
<path fill="#d8060f" opacity="1.00" d=" M 80.70 305.60 C 84.44 306.17 88.24 306.41 92.03 306.21 C 93.92 306.06 95.81 305.85 97.69 305.56 C 102.25 319.67 109.67 332.77 118.25 344.81 C 120.03 347.29 119.40 350.50 119.35 353.33 C 118.59 356.30 117.83 359.26 117.18 362.25 C 116.66 365.75 115.60 369.14 114.20 372.38 C 113.52 368.39 112.75 364.19 110.03 361.02 C 102.69 351.68 95.98 341.76 90.90 330.99 C 86.72 322.88 82.64 314.58 80.70 305.60 Z" />
</g>
<g id="#f54650ff">
<path fill="#f54650" opacity="1.00" d=" M 238.04 312.01 C 248.99 310.48 260.09 311.61 270.96 313.21 C 279.37 315.73 288.26 316.87 296.19 320.81 C 303.42 324.39 310.93 327.54 317.47 332.36 C 316.75 333.30 316.04 334.24 315.33 335.19 C 318.38 338.36 321.47 341.64 323.27 345.72 C 324.73 349.04 326.43 352.25 328.60 355.17 C 331.04 361.69 333.53 368.54 332.43 375.63 C 331.92 378.10 330.48 380.23 329.00 382.22 C 327.39 380.33 327.72 377.76 327.37 375.48 C 327.22 372.92 325.73 370.76 324.51 368.60 C 322.16 364.98 321.26 360.66 319.01 357.01 C 315.54 353.38 311.04 350.95 307.29 347.63 C 300.23 342.50 293.45 336.46 284.88 334.04 C 278.47 332.11 272.37 328.97 265.63 328.34 C 258.45 327.54 251.22 326.33 243.99 327.16 C 236.93 327.87 229.71 328.32 223.05 331.00 C 217.30 333.28 211.14 334.63 205.77 337.75 C 200.44 341.35 195.38 345.37 189.88 348.72 C 188.07 349.83 185.96 350.19 183.91 350.54 C 184.93 348.12 185.53 345.56 185.85 342.97 C 182.67 343.74 179.75 345.23 176.88 346.75 C 176.73 345.43 176.57 344.12 176.40 342.82 C 177.76 340.63 179.55 338.77 181.25 336.86 C 181.63 335.39 181.25 333.80 181.27 332.31 C 186.19 329.60 190.79 326.31 196.02 324.18 C 201.71 321.90 206.90 318.33 212.98 317.07 C 221.31 315.27 229.43 312.21 238.04 312.01 Z" />
</g>
<g id="#e52b34ff">
<path fill="#e52b34" opacity="1.00" d=" M 323.19 314.41 C 325.59 314.16 327.99 313.92 330.40 313.68 C 337.63 318.07 344.15 323.53 350.14 329.49 C 352.62 335.77 357.41 340.68 360.44 346.65 C 362.49 350.60 365.09 354.34 366.19 358.71 C 367.03 362.01 367.75 365.35 368.87 368.58 C 367.03 371.22 364.81 373.71 363.90 376.86 C 362.68 380.41 362.55 384.57 359.68 387.32 C 356.21 385.56 352.24 388.23 349.00 386.01 C 350.58 378.59 349.34 370.95 346.82 363.89 C 345.45 358.95 344.95 353.76 342.61 349.13 C 343.15 347.63 344.42 346.52 345.36 345.26 C 342.79 339.03 338.96 333.31 334.42 328.34 C 334.53 326.79 335.55 325.00 334.39 323.62 C 331.41 319.75 327.02 317.34 323.19 314.41 Z" />
</g>
<g id="#e42830ff">
<path fill="#e42830" opacity="1.00" d=" M 138.29 335.84 C 142.09 330.64 146.94 326.42 151.45 321.89 C 153.15 322.25 154.86 322.63 156.56 322.99 C 154.70 325.31 153.01 327.80 151.94 330.59 C 155.18 329.23 158.36 327.69 161.36 325.85 C 163.18 326.10 165.00 326.40 166.80 326.74 C 164.96 329.23 163.57 332.00 162.40 334.86 C 157.91 338.68 155.48 344.21 151.24 348.25 C 149.28 350.12 148.43 352.74 146.93 354.93 C 145.31 357.36 143.18 359.61 142.67 362.60 C 141.25 368.44 144.02 374.19 143.37 380.07 C 142.91 382.45 144.37 384.41 145.48 386.36 C 145.61 387.96 145.59 389.56 145.58 391.17 C 143.66 391.99 141.77 392.89 139.97 393.95 C 138.98 391.54 138.25 388.96 136.71 386.83 C 135.09 385.67 132.95 385.81 131.06 385.57 C 129.74 380.21 128.66 374.79 128.22 369.29 C 129.97 362.61 131.65 355.90 133.34 349.21 C 134.79 344.68 136.96 340.41 138.29 335.84 Z" />
</g>
<g id="#ee5961ff">
<path fill="#ee5961" opacity="1.00" d=" M 223.05 331.00 C 229.71 328.32 236.93 327.87 243.99 327.16 C 251.22 326.33 258.45 327.54 265.63 328.34 C 272.37 328.97 278.47 332.11 284.88 334.04 C 293.45 336.46 300.23 342.50 307.29 347.63 C 311.04 350.95 315.54 353.38 319.01 357.01 C 321.26 360.66 322.16 364.98 324.51 368.60 C 322.37 376.10 322.74 384.16 319.63 391.40 C 317.69 395.94 315.88 400.73 312.25 404.23 C 309.17 407.30 306.71 410.90 304.66 414.72 C 303.06 415.24 301.41 415.29 299.87 414.56 C 300.68 409.31 301.23 404.02 302.92 398.94 C 303.85 393.35 308.04 388.84 308.12 383.03 C 309.28 376.48 308.01 369.02 302.62 364.62 C 298.30 358.66 293.96 352.26 287.25 348.76 C 264.54 336.33 235.38 335.79 212.69 348.57 C 205.67 351.75 200.83 358.11 196.82 364.47 C 191.87 370.28 189.88 378.57 192.33 385.88 C 193.61 389.51 194.78 393.18 195.23 397.02 C 195.84 401.88 198.51 406.30 198.41 411.27 C 197.71 411.13 197.01 410.99 196.32 410.86 C 196.27 411.34 196.18 412.30 196.13 412.78 C 196.08 413.33 195.97 414.45 195.92 415.00 C 195.50 414.18 195.09 413.36 194.68 412.55 C 194.26 413.19 193.84 413.84 193.43 414.50 C 192.50 413.66 191.56 412.81 190.66 411.95 C 189.04 407.41 185.65 403.96 182.81 400.19 C 179.15 393.97 175.81 387.31 174.98 380.03 C 174.65 376.55 173.86 373.09 173.94 369.59 C 175.81 362.62 179.02 355.91 183.91 350.54 C 185.96 350.19 188.07 349.83 189.88 348.72 C 195.38 345.37 200.44 341.35 205.77 337.75 C 211.14 334.63 217.30 333.28 223.05 331.00 Z" />
</g>
<g id="#e73740ff">
<path fill="#e73740" opacity="1.00" d=" M 162.40 334.86 C 166.11 332.88 170.05 331.36 174.05 330.10 C 173.43 332.00 172.81 333.91 172.21 335.82 C 175.26 334.75 178.29 333.58 181.27 332.31 C 181.25 333.80 181.63 335.39 181.25 336.86 C 179.55 338.77 177.76 340.63 176.40 342.82 C 171.17 348.80 165.60 354.66 161.76 361.69 C 159.51 367.17 157.89 372.89 156.42 378.61 C 155.00 383.56 156.68 388.68 155.73 393.69 C 152.70 390.29 150.99 386.02 148.33 382.37 C 147.38 383.70 146.43 385.02 145.48 386.36 C 144.37 384.41 142.91 382.45 143.37 380.07 C 144.02 374.19 141.25 368.44 142.67 362.60 C 143.18 359.61 145.31 357.36 146.93 354.93 C 148.43 352.74 149.28 350.12 151.24 348.25 C 155.48 344.21 157.91 338.68 162.40 334.86 Z" />
</g>
<g id="#e11b25ff">
<path fill="#e11b25" opacity="1.00" d=" M 350.14 329.49 C 353.41 330.85 357.04 331.77 359.63 334.36 C 362.22 336.90 364.24 340.21 367.80 341.53 C 373.22 347.41 374.73 355.56 377.20 362.90 C 376.54 366.69 375.50 370.44 375.34 374.31 C 373.82 371.75 371.91 369.32 368.87 368.58 C 367.75 365.35 367.03 362.01 366.19 358.71 C 365.09 354.34 362.49 350.60 360.44 346.65 C 357.41 340.68 352.62 335.77 350.14 329.49 Z" />
</g>
<g id="#de151eff">
<path fill="#de151e" opacity="1.00" d=" M 119.35 353.33 C 122.11 346.17 126.41 339.74 132.01 334.49 C 132.16 336.54 132.28 338.60 132.40 340.66 C 134.31 338.99 136.31 337.42 138.29 335.84 C 136.96 340.41 134.79 344.68 133.34 349.21 C 131.65 355.90 129.97 362.61 128.22 369.29 C 126.35 369.14 124.49 368.98 122.63 368.79 C 122.26 365.49 118.98 364.53 117.18 362.25 C 117.83 359.26 118.59 356.30 119.35 353.33 Z" />
</g>
<g id="#f2676fff">
<path fill="#f2676f" opacity="1.00" d=" M 212.69 348.57 C 235.38 335.79 264.54 336.33 287.25 348.76 C 293.96 352.26 298.30 358.66 302.62 364.62 C 299.90 366.16 297.62 368.33 296.09 371.06 C 293.76 368.48 291.09 366.21 287.91 364.77 C 283.77 361.67 280.21 357.68 275.36 355.64 C 263.25 350.18 249.35 348.63 236.37 351.48 C 226.60 353.70 216.89 358.03 210.58 366.10 C 207.94 366.51 205.55 367.74 203.66 369.61 C 201.42 367.85 199.14 366.13 196.82 364.47 C 200.83 358.11 205.67 351.75 212.69 348.57 Z" />
</g>
<g id="#e3474fff">
<path fill="#e3474f" opacity="1.00" d=" M 161.76 361.69 C 165.60 354.66 171.17 348.80 176.40 342.82 C 176.57 344.12 176.73 345.43 176.88 346.75 C 179.75 345.23 182.67 343.74 185.85 342.97 C 185.53 345.56 184.93 348.12 183.91 350.54 C 179.02 355.91 175.81 362.62 173.94 369.59 C 173.86 373.09 174.65 376.55 174.98 380.03 C 175.81 387.31 179.15 393.97 182.81 400.19 C 185.65 403.96 189.04 407.41 190.66 411.95 C 191.33 413.64 191.90 415.37 192.46 417.10 C 190.45 415.81 188.42 414.54 186.37 413.32 C 186.46 414.87 186.57 416.43 186.66 417.99 C 182.07 418.02 179.38 412.09 174.57 413.96 C 170.66 412.19 167.15 409.70 163.88 406.97 C 161.16 402.53 157.41 398.70 155.73 393.69 C 156.68 388.68 155.00 383.56 156.42 378.61 C 157.89 372.89 159.51 367.17 161.76 361.69 Z" />
</g>
<g id="#ef757bff">
<path fill="#ef757b" opacity="1.00" d=" M 236.37 351.48 C 249.35 348.63 263.25 350.18 275.36 355.64 C 280.21 357.68 283.77 361.67 287.91 364.77 C 288.61 367.64 289.81 370.34 290.91 373.07 C 292.67 377.09 289.36 381.33 290.69 385.45 C 291.67 388.83 292.35 392.36 291.28 395.82 C 289.21 393.64 286.98 391.62 284.60 389.79 C 286.80 393.67 284.53 397.84 283.40 401.66 C 282.43 397.19 282.32 392.28 279.61 388.42 C 277.34 384.97 273.61 382.94 270.17 380.86 C 265.17 378.05 259.90 375.14 254.03 374.91 C 247.41 374.58 240.49 374.59 234.38 377.49 C 229.83 379.68 225.16 381.83 221.19 384.99 C 217.13 388.40 216.64 394.07 214.29 398.55 C 213.26 395.32 212.52 391.97 210.86 388.99 C 209.20 391.05 207.62 393.16 205.97 395.22 C 205.11 391.92 206.47 388.72 207.55 385.66 C 209.65 381.15 206.59 376.28 208.18 371.64 C 208.15 369.36 211.00 368.44 210.58 366.10 C 216.89 358.03 226.60 353.70 236.37 351.48 Z" />
</g>
<g id="#e1474eff">
<path fill="#e1474e" opacity="1.00" d=" M 332.43 375.63 C 333.53 368.54 331.04 361.69 328.60 355.17 C 332.11 357.82 335.57 360.57 339.28 362.96 C 340.71 368.63 341.30 374.53 341.34 380.38 C 340.71 386.68 338.82 392.86 339.23 399.25 C 336.88 402.81 334.86 406.59 332.37 410.06 C 325.99 413.90 321.04 419.68 314.47 423.25 C 314.57 420.62 315.07 417.26 312.31 415.74 C 309.86 414.96 307.15 415.49 304.66 414.72 C 306.71 410.90 309.17 407.30 312.25 404.23 C 315.88 400.73 317.69 395.94 319.63 391.40 C 322.74 384.16 322.37 376.10 324.51 368.60 C 325.73 370.76 327.22 372.92 327.37 375.48 C 327.72 377.76 327.39 380.33 329.00 382.22 C 330.48 380.23 331.92 378.10 332.43 375.63 Z" />
</g>
<g id="#e33b43ff">
<path fill="#e33b43" opacity="1.00" d=" M 339.28 362.96 C 339.69 362.01 340.11 361.07 340.53 360.14 C 342.55 361.51 344.64 362.77 346.82 363.89 C 349.34 370.95 350.58 378.59 349.00 386.01 C 346.33 388.29 346.05 392.13 343.55 394.53 C 342.10 396.10 340.57 397.59 339.23 399.25 C 338.82 392.86 340.71 386.68 341.34 380.38 C 341.30 374.53 340.71 368.63 339.28 362.96 Z" />
</g>
<g id="#c41217ff">
<path fill="#c41217" opacity="1.00" d=" M 117.18 362.25 C 118.98 364.53 122.26 365.49 122.63 368.79 C 122.66 373.82 122.07 378.92 123.04 383.90 C 124.25 388.60 126.56 392.91 128.52 397.32 C 130.88 402.29 132.69 407.58 135.97 412.06 C 139.01 416.34 142.68 420.23 145.03 424.97 C 145.98 426.19 144.86 427.39 144.31 428.48 C 143.87 428.14 142.98 427.47 142.54 427.14 C 142.51 428.16 142.49 429.18 142.46 430.21 C 141.32 430.28 140.18 430.34 139.05 430.42 C 140.73 434.72 145.79 436.55 147.04 440.99 C 140.26 438.16 136.00 431.76 130.18 427.51 C 124.86 420.24 120.16 412.55 116.45 404.33 C 117.88 398.56 113.55 393.67 113.29 388.07 C 113.06 382.83 113.01 377.51 114.20 372.38 C 115.60 369.14 116.66 365.75 117.18 362.25 Z" />
</g>
<g id="#cf1218ff">
<path fill="#cf1218" opacity="1.00" d=" M 377.20 362.90 C 378.29 364.57 379.51 366.15 380.73 367.74 C 381.16 366.17 381.59 364.61 382.01 363.04 C 382.99 364.81 383.97 366.59 384.82 368.43 C 386.59 375.02 385.92 381.94 384.54 388.53 C 381.18 389.35 380.07 393.46 377.17 395.19 C 376.99 394.00 376.81 392.82 376.61 391.65 C 375.74 391.92 374.86 392.20 374.00 392.48 C 374.60 386.44 375.34 380.39 375.34 374.31 C 375.50 370.44 376.54 366.69 377.20 362.90 Z" />
</g>
<g id="#e56a70ff">
<path fill="#e56a70" opacity="1.00" d=" M 192.33 385.88 C 189.88 378.57 191.87 370.28 196.82 364.47 C 199.14 366.13 201.42 367.85 203.66 369.61 C 205.55 367.74 207.94 366.51 210.58 366.10 C 211.00 368.44 208.15 369.36 208.18 371.64 C 206.59 376.28 209.65 381.15 207.55 385.66 C 206.47 388.72 205.11 391.92 205.97 395.22 C 207.62 393.16 209.20 391.05 210.86 388.99 C 212.52 391.97 213.26 395.32 214.29 398.55 C 214.19 406.67 219.37 413.90 225.77 418.44 C 236.41 424.29 249.55 426.44 261.23 422.55 C 265.14 421.28 269.19 420.10 272.56 417.65 C 277.71 413.59 281.28 407.81 283.40 401.66 C 284.53 397.84 286.80 393.67 284.60 389.79 C 286.98 391.62 289.21 393.64 291.28 395.82 C 292.35 392.36 291.67 388.83 290.69 385.45 C 289.36 381.33 292.67 377.09 290.91 373.07 C 289.81 370.34 288.61 367.64 287.91 364.77 C 291.09 366.21 293.76 368.48 296.09 371.06 C 297.62 368.33 299.90 366.16 302.62 364.62 C 308.01 369.02 309.28 376.48 308.12 383.03 C 308.04 388.84 303.85 393.35 302.92 398.94 C 301.23 404.02 300.68 409.31 299.87 414.56 C 295.77 419.57 290.61 423.64 285.13 427.03 C 275.97 431.34 266.35 435.69 256.02 435.62 C 247.31 435.52 238.45 436.27 229.93 434.02 C 216.89 430.63 204.36 423.67 196.13 412.78 C 196.18 412.30 196.27 411.34 196.32 410.86 C 197.01 410.99 197.71 411.13 198.41 411.27 C 198.51 406.30 195.84 401.88 195.23 397.02 C 194.78 393.18 193.61 389.51 192.33 385.88 Z" />
</g>
<g id="#d31d24ff">
<path fill="#d31d24" opacity="1.00" d=" M 122.63 368.79 C 124.49 368.98 126.35 369.14 128.22 369.29 C 128.66 374.79 129.74 380.21 131.06 385.57 C 131.92 389.65 132.58 394.67 128.52 397.32 C 126.56 392.91 124.25 388.60 123.04 383.90 C 122.07 378.92 122.66 373.82 122.63 368.79 Z" />
</g>
<g id="#cd2127ff">
<path fill="#cd2127" opacity="1.00" d=" M 363.90 376.86 C 364.81 373.71 367.03 371.22 368.87 368.58 C 371.91 369.32 373.82 371.75 375.34 374.31 C 375.34 380.39 374.60 386.44 374.00 392.48 C 374.86 392.20 375.74 391.92 376.61 391.65 C 376.81 392.82 376.99 394.00 377.17 395.19 C 376.28 398.39 375.08 401.50 373.53 404.44 C 370.46 410.22 367.56 416.22 363.07 421.07 C 360.91 423.43 358.30 425.30 355.88 427.37 C 355.63 424.70 356.60 422.20 357.75 419.86 C 353.37 422.49 349.62 425.95 346.46 429.95 C 346.04 428.60 344.63 427.10 345.74 425.74 C 347.15 423.47 348.97 421.39 349.64 418.73 C 355.29 413.03 359.26 405.94 362.75 398.79 C 362.96 397.83 364.02 396.67 363.25 395.75 C 362.32 394.07 360.25 395.23 358.78 395.19 C 358.81 392.54 359.08 389.90 359.68 387.32 C 362.55 384.57 362.68 380.41 363.90 376.86 Z" />
</g>
<g id="#eb8186ff">
<path fill="#eb8186" opacity="1.00" d=" M 234.38 377.49 C 240.49 374.59 247.41 374.58 254.03 374.91 C 259.90 375.14 265.17 378.05 270.17 380.86 C 273.61 382.94 277.34 384.97 279.61 388.42 C 282.32 392.28 282.43 397.19 283.40 401.66 C 281.28 407.81 277.71 413.59 272.56 417.65 C 269.19 420.10 265.14 421.28 261.23 422.55 C 249.55 426.44 236.41 424.29 225.77 418.44 C 219.37 413.90 214.19 406.67 214.29 398.55 C 216.64 394.07 217.13 388.40 221.19 384.99 C 225.16 381.83 229.83 379.68 234.38 377.49 M 241.59 387.84 C 237.14 389.55 233.83 393.20 230.49 396.45 C 229.03 398.03 226.97 399.90 227.70 402.29 C 228.65 406.14 229.70 410.05 231.50 413.61 C 233.81 416.83 237.70 418.41 241.31 419.72 C 248.53 422.46 256.82 420.16 262.96 415.96 C 266.55 411.51 269.12 405.92 269.90 400.27 C 266.70 396.14 263.20 392.06 258.86 389.07 C 253.58 386.24 247.27 386.72 241.59 387.84 Z" />
</g>
<g id="#d6343aff">
<path fill="#d6343a" opacity="1.00" d=" M 148.33 382.37 C 150.99 386.02 152.70 390.29 155.73 393.69 C 157.41 398.70 161.16 402.53 163.88 406.97 C 165.06 409.35 166.04 411.82 167.02 414.29 C 165.49 414.29 163.97 414.29 162.46 414.30 C 161.90 417.49 164.03 420.17 165.18 422.97 C 161.26 421.23 157.78 418.71 154.15 416.49 C 148.83 409.39 142.96 402.43 139.97 393.95 C 141.77 392.89 143.66 391.99 145.58 391.17 C 145.59 389.56 145.61 387.96 145.48 386.36 C 146.43 385.02 147.38 383.70 148.33 382.37 Z" />
</g>
<g id="#c12528ff">
<path fill="#c12528" opacity="1.00" d=" M 131.06 385.57 C 132.95 385.81 135.09 385.67 136.71 386.83 C 138.25 388.96 138.98 391.54 139.97 393.95 C 142.96 402.43 148.83 409.39 154.15 416.49 C 155.11 418.27 155.98 420.16 157.32 421.71 C 163.80 428.96 171.35 435.27 179.76 440.16 C 198.53 449.45 218.91 456.40 240.03 456.92 C 246.63 457.92 253.32 457.86 259.93 456.89 C 276.14 456.39 292.08 452.16 306.93 445.80 C 319.10 441.48 330.38 434.30 338.84 424.49 C 342.98 423.76 346.19 420.90 349.64 418.73 C 348.97 421.39 347.15 423.47 345.74 425.74 C 344.63 427.10 346.04 428.60 346.46 429.95 C 349.62 425.95 353.37 422.49 357.75 419.86 C 356.60 422.20 355.63 424.70 355.88 427.37 C 347.40 436.64 336.94 443.93 325.96 449.94 C 313.63 456.16 300.71 461.37 287.14 464.17 C 269.49 468.85 251.10 468.12 233.03 467.62 C 214.21 465.73 195.59 460.94 178.64 452.42 C 170.51 449.45 163.78 443.95 156.55 439.36 C 152.13 436.14 148.47 432.02 144.31 428.48 C 144.86 427.39 145.98 426.19 145.03 424.97 C 142.68 420.23 139.01 416.34 135.97 412.06 C 132.69 407.58 130.88 402.29 128.52 397.32 C 132.58 394.67 131.92 389.65 131.06 385.57 Z" />
</g>
<g id="#d53138ff">
<path fill="#d53138" opacity="1.00" d=" M 349.00 386.01 C 352.24 388.23 356.21 385.56 359.68 387.32 C 359.08 389.90 358.81 392.54 358.78 395.19 C 360.25 395.23 362.32 394.07 363.25 395.75 C 364.02 396.67 362.96 397.83 362.75 398.79 C 359.26 405.94 355.29 413.03 349.64 418.73 C 346.19 420.90 342.98 423.76 338.84 424.49 C 341.06 421.59 342.99 418.43 344.03 414.91 C 341.19 417.05 338.74 419.77 335.45 421.26 C 335.98 418.43 336.73 415.65 337.45 412.86 C 333.68 414.31 330.54 416.88 327.30 419.23 C 328.24 415.80 330.39 412.94 332.37 410.06 C 334.86 406.59 336.88 402.81 339.23 399.25 C 340.57 397.59 342.10 396.10 343.55 394.53 C 346.05 392.13 346.33 388.29 349.00 386.01 Z" />
</g>
<g id="#eb8c90ff">
<path fill="#eb8c90" opacity="1.00" d=" M 241.59 387.84 C 247.27 386.72 253.58 386.24 258.86 389.07 C 263.20 392.06 266.70 396.14 269.90 400.27 C 269.12 405.92 266.55 411.51 262.96 415.96 C 256.82 420.16 248.53 422.46 241.31 419.72 C 237.70 418.41 233.81 416.83 231.50 413.61 C 229.70 410.05 228.65 406.14 227.70 402.29 C 226.97 399.90 229.03 398.03 230.49 396.45 C 233.83 393.20 237.14 389.55 241.59 387.84 M 245.26 404.27 C 243.69 404.89 242.25 405.81 240.98 406.91 C 238.80 408.43 239.19 412.31 241.47 413.60 C 244.82 416.36 249.65 415.89 253.45 414.47 C 256.77 413.45 257.70 408.12 254.70 406.28 C 251.99 404.55 248.46 402.82 245.26 404.27 Z" />
</g>
<g id="#b51114ff">
<path fill="#b51114" opacity="1.00" d=" M 377.17 395.19 C 380.07 393.46 381.18 389.35 384.54 388.53 C 383.83 393.22 381.95 397.83 382.66 402.64 C 380.41 411.07 376.39 419.08 370.63 425.67 C 367.90 428.68 366.69 432.86 363.44 435.44 C 358.68 439.37 354.52 444.01 349.46 447.58 C 339.34 454.14 328.60 459.73 317.54 464.55 C 301.96 469.59 286.18 474.94 269.68 475.63 C 262.86 477.12 255.90 476.12 249.00 476.79 C 242.70 476.03 236.32 477.07 230.06 475.80 C 216.36 474.68 202.86 471.60 189.85 467.16 C 175.02 462.73 161.55 454.80 148.47 446.70 C 143.42 442.73 138.83 438.20 134.22 433.73 C 132.35 432.03 131.26 429.74 130.18 427.51 C 136.00 431.76 140.26 438.16 147.04 440.99 C 145.79 436.55 140.73 434.72 139.05 430.42 C 140.18 430.34 141.32 430.28 142.46 430.21 C 142.49 429.18 142.51 428.16 142.54 427.14 C 142.98 427.47 143.87 428.14 144.31 428.48 C 148.47 432.02 152.13 436.14 156.55 439.36 C 163.78 443.95 170.51 449.45 178.64 452.42 C 195.59 460.94 214.21 465.73 233.03 467.62 C 251.10 468.12 269.49 468.85 287.14 464.17 C 300.71 461.37 313.63 456.16 325.96 449.94 C 336.94 443.93 347.40 436.64 355.88 427.37 C 358.30 425.30 360.91 423.43 363.07 421.07 C 367.56 416.22 370.46 410.22 373.53 404.44 C 375.08 401.50 376.28 398.39 377.17 395.19 Z" />
</g>
<g id="#eb9da0ff">
<path fill="#eb9da0" opacity="1.00" d=" M 245.26 404.27 C 248.46 402.82 251.99 404.55 254.70 406.28 C 257.70 408.12 256.77 413.45 253.45 414.47 C 249.65 415.89 244.82 416.36 241.47 413.60 C 239.19 412.31 238.80 408.43 240.98 406.91 C 242.25 405.81 243.69 404.89 245.26 404.27 Z" />
</g>
<g id="#cd363aff">
<path fill="#cd363a" opacity="1.00" d=" M 163.88 406.97 C 167.15 409.70 170.66 412.19 174.57 413.96 C 179.62 417.35 183.01 422.83 188.64 425.42 C 194.58 428.23 199.44 432.81 205.36 435.65 C 211.16 438.32 217.06 440.89 223.22 442.65 C 248.01 448.53 275.52 446.13 297.52 432.65 C 303.11 429.41 308.92 426.56 314.47 423.25 C 321.04 419.68 325.99 413.90 332.37 410.06 C 330.39 412.94 328.24 415.80 327.30 419.23 C 330.54 416.88 333.68 414.31 337.45 412.86 C 336.73 415.65 335.98 418.43 335.45 421.26 C 338.74 419.77 341.19 417.05 344.03 414.91 C 342.99 418.43 341.06 421.59 338.84 424.49 C 330.38 434.30 319.10 441.48 306.93 445.80 C 292.08 452.16 276.14 456.39 259.93 456.89 C 253.32 457.86 246.63 457.92 240.03 456.92 C 218.91 456.40 198.53 449.45 179.76 440.16 C 171.35 435.27 163.80 428.96 157.32 421.71 C 155.98 420.16 155.11 418.27 154.15 416.49 C 157.78 418.71 161.26 421.23 165.18 422.97 C 164.03 420.17 161.90 417.49 162.46 414.30 C 163.97 414.29 165.49 414.29 167.02 414.29 C 166.04 411.82 165.06 409.35 163.88 406.97 Z" />
</g>
<g id="#d84f53ff">
<path fill="#d84f53" opacity="1.00" d=" M 190.66 411.95 C 191.56 412.81 192.50 413.66 193.43 414.50 C 193.84 413.84 194.26 413.19 194.68 412.55 C 195.09 413.36 195.50 414.18 195.92 415.00 C 195.97 414.45 196.08 413.33 196.13 412.78 C 204.36 423.67 216.89 430.63 229.93 434.02 C 238.45 436.27 247.31 435.52 256.02 435.62 C 266.35 435.69 275.97 431.34 285.13 427.03 C 290.61 423.64 295.77 419.57 299.87 414.56 C 301.41 415.29 303.06 415.24 304.66 414.72 C 307.15 415.49 309.86 414.96 312.31 415.74 C 315.07 417.26 314.57 420.62 314.47 423.25 C 308.92 426.56 303.11 429.41 297.52 432.65 C 275.52 446.13 248.01 448.53 223.22 442.65 C 217.06 440.89 211.16 438.32 205.36 435.65 C 199.44 432.81 194.58 428.23 188.64 425.42 C 183.01 422.83 179.62 417.35 174.57 413.96 C 179.38 412.09 182.07 418.02 186.66 417.99 C 186.57 416.43 186.46 414.87 186.37 413.32 C 188.42 414.54 190.45 415.81 192.46 417.10 C 191.90 415.37 191.33 413.64 190.66 411.95 Z" />
</g>
</svg>
