<svg xmlns="http://www.w3.org/2000/svg" viewBox="0 0 80.21 80.21"><defs><style>.cls-1{fill:#60fc7c;}.cls-2{fill:#fff;fill-rule:evenodd;}</style></defs><title>ico-whatsapp</title><g id="Capa_2" data-name="Capa 2"><g id="Design"><circle class="cls-1" cx="40.11" cy="40.11" r="40.11"/><path class="cls-2" d="M40.11,14.52A25.59,25.59,0,0,0,18.61,54l-3.89,8.56a2.23,2.23,0,0,0,2.63,3.08l10.71-2.94A25.59,25.59,0,1,0,40.11,14.52Zm0,46.71a21.1,21.1,0,0,1-10.63-2.88,2.24,2.24,0,0,0-1.72-.23l-7,1.92,2.44-5.37A2.23,2.23,0,0,0,23,52.45a21.12,21.12,0,1,1,17.14,8.78Z"/><path class="cls-2" d="M49.95,43.94c-1.07-.64-2.47-1.36-3.73-.84-1,.4-1.59,1.91-2.21,2.69a.93.93,0,0,1-1.2.26,16.89,16.89,0,0,1-8.43-7.22,1,1,0,0,1,.13-1.41A5.7,5.7,0,0,0,36,34.93,5.44,5.44,0,0,0,35.35,32c-.51-1.09-1.08-2.65-2.17-3.27a3,3,0,0,0-3.23.48,6.56,6.56,0,0,0-2.27,5.2,7.39,7.39,0,0,0,.2,1.65,13.66,13.66,0,0,0,1.58,3.65,28.79,28.79,0,0,0,1.65,2.51,25.5,25.5,0,0,0,7.17,6.65A21.68,21.68,0,0,0,42.74,51c1.75.58,3.31,1.18,5.2.82a6.3,6.3,0,0,0,4.72-3.51,3,3,0,0,0,.22-1.79C52.61,45.27,50.94,44.54,49.95,43.94Z"/></g></g></svg>