<svg xmlns="http://www.w3.org/2000/svg" viewBox="0 0 80.21 80.21"><defs><style>.cls-1{fill:#3cf;}.cls-2,.cls-3{fill:#fff;}.cls-3{fill-rule:evenodd;}</style></defs><title>ico-twitter</title><g id="Capa_2" data-name="Capa 2"><g id="Design"><circle class="cls-1" cx="40.11" cy="40.11" r="40.11"/><path class="cls-2" d="M64.47,24.64a20.33,20.33,0,0,1-5,1.43c.8-.14,2-1.59,2.46-2.18a9.17,9.17,0,0,0,1.66-3c0-.09.08-.19,0-.26a.28.28,0,0,0-.26,0,25.5,25.5,0,0,1-5.93,2.27.4.4,0,0,1-.41-.11,4.79,4.79,0,0,0-.52-.53,10.49,10.49,0,0,0-2.87-1.76,10,10,0,0,0-4.4-.71A10.53,10.53,0,0,0,45,21a10.77,10.77,0,0,0-3.37,2.75,10.35,10.35,0,0,0-2,4A10.92,10.92,0,0,0,39.53,32c0,.24,0,.27-.2.24C31.18,31,24.43,28.12,19,21.87c-.24-.27-.37-.27-.56,0-2.4,3.59-1.23,9.37,1.76,12.2.4.38.81.76,1.25,1.1a10.38,10.38,0,0,1-3.93-1.1c-.24-.15-.36-.06-.38.21a6.21,6.21,0,0,0,.06,1.17A10.45,10.45,0,0,0,23.6,43.8a6.09,6.09,0,0,0,1.31.4,11.65,11.65,0,0,1-3.86.12c-.28-.05-.39.09-.28.36,1.7,4.62,5.36,6,8.1,6.78.37.06.73.06,1.1.15,0,0,0,0-.07.07-.91,1.39-4.06,2.42-5.53,2.93A19.81,19.81,0,0,1,16,55.68c-.45-.07-.55-.06-.67,0s0,.18.13.3c.57.38,1.16.71,1.75,1a27.73,27.73,0,0,0,5.62,2.25c10.09,2.79,21.46.74,29-6.79,6-5.91,8-14.07,8-22.23,0-.32.38-.5.6-.66a19.55,19.55,0,0,0,3.93-4.11,1.19,1.19,0,0,0,.24-.79v0C64.65,24.51,64.67,24.55,64.47,24.64Z"/><path class="cls-3" d="M29.92,60.53Z"/><path class="cls-3" d="M29.92,60.53Z"/><path class="cls-3" d="M31.59,60.58c0-.08.88,0,0,0C31.59,60.53,31.69,60.58,31.59,60.58Z"/><path class="cls-3" d="M49.06,20.08a.18.18,0,0,1-.2,0Z"/></g></g></svg>