<svg xmlns="http://www.w3.org/2000/svg" xmlns:xlink="http://www.w3.org/1999/xlink" viewBox="0 0 135.36 121.86"><defs><style>.cls-1{fill:none;}.cls-2{clip-path:url(#clip-path);}.cls-3{fill:url(#radial-gradient);}.cls-4{fill:#3d3d3d;}.cls-5{fill:#515252;}</style><clipPath id="clip-path"><path class="cls-1" d="M68.79,4.06A61.07,61.07,0,0,0,39.52,16.44c-9.23,7.29-15.18,16.62-17.2,27a89.27,89.27,0,0,0-1.14,10.17C20.11,67.71,18.63,76.28,7.1,76.28A3.55,3.55,0,0,0,4.26,82C19.86,102.66,46.61,105,65.38,105h6.09c8.77,0,18-.42,26.27-3.5,14.66-5.47,27-17.76,31.47-31.31,5-15.29,2.69-30.77-6.58-43.59-10.31-14.25-28-23.1-46.22-23.1a57.14,57.14,0,0,0-7.63.51"/></clipPath><radialGradient id="radial-gradient" cx="-85.97" cy="201.61" r="1" gradientTransform="matrix(-95.26, 0, 0, 129.8, -8090.15, -26101.89)" gradientUnits="userSpaceOnUse"><stop offset="0" stop-color="#f5f6f7"/><stop offset="0.05" stop-color="#f5f6f7"/><stop offset="0.74" stop-color="#cbd6db"/><stop offset="1" stop-color="#edeff1"/></radialGradient></defs><title>ico-waze</title><g id="Capa_2" data-name="Capa 2"><g id="Layer_1" data-name="Layer 1"><g class="cls-2"><rect class="cls-3" x="17.65" y="-11.46" width="102.27" height="131.52" transform="translate(14.08 122.76) rotate(-89.66)"/></g><path class="cls-4" d="M76.42,7.1c32,0,60.44,28.55,49.43,62-4.44,13.49-16.79,24.41-29.34,29.09-8.18,3.05-17.74,3.28-25,3.28H65.39c-18.33,0-43.64-2.24-58.29-21.67,20.07,0,16.11-22.43,18.7-35.73,4-20.27,24-33.9,43.46-36.53a53.54,53.54,0,0,1,7.15-.48m0-7.1a60.73,60.73,0,0,0-8.1.54,64.69,64.69,0,0,0-31,13.11C27.42,21.48,21,31.54,18.84,42.75a93.51,93.51,0,0,0-1.2,10.58c-.42,5.58-.86,11.35-2.63,15.12C13.8,71,12,72.73,7.1,72.73A7.1,7.1,0,0,0,1.43,84.1c16.55,22,44.43,24.49,64,24.49h6.09c9.1,0,18.74-.45,27.52-3.72A59.38,59.38,0,0,0,119.13,92.1a51.46,51.46,0,0,0,13.46-20.75,52.11,52.11,0,0,0,2.07-25.2,51.09,51.09,0,0,0-9.14-21.58A59.09,59.09,0,0,0,104.26,6.65,62.13,62.13,0,0,0,76.42,0"/><path class="cls-4" d="M67.29,42.45a6.82,6.82,0,1,1-6.82-6.81,6.81,6.81,0,0,1,6.82,6.81"/><path class="cls-4" d="M99.13,42.45a6.81,6.81,0,1,1-6.81-6.81,6.81,6.81,0,0,1,6.81,6.81"/><path class="cls-4" d="M76.15,79c-11.55,0-22-7.57-23.86-17.48a3.55,3.55,0,0,1,7-1.34c1.12,5.83,8.1,12,17.4,11.72,9.69-.25,16.08-6,17.4-11.64A3.55,3.55,0,1,1,101,61.88a21,21,0,0,1-8.28,11.91A27.9,27.9,0,0,1,76.85,79h-.69"/><path class="cls-4" d="M27.81,107.79a14.07,14.07,0,1,1,14.07,14.07,14.07,14.07,0,0,1-14.07-14.07"/><path class="cls-5" d="M37.24,107.79a4.64,4.64,0,1,1,4.64,4.64,4.64,4.64,0,0,1-4.64-4.64"/><path class="cls-4" d="M76.66,107.79a14.07,14.07,0,1,1,14.07,14.07,14.07,14.07,0,0,1-14.07-14.07"/><path class="cls-5" d="M86.09,107.79a4.64,4.64,0,1,1,4.64,4.64,4.64,4.64,0,0,1-4.64-4.64"/></g></g></svg>